<svg id="rechts" xmlns="http://www.w3.org/2000/svg" width="400" height="232"><style>.st0{fill:#85af05}.st1{fill:#53241b}.st2{fill:#acc700}.st3{fill:#c0d219}.st4{fill:#fdcc2e}.st5{fill:#ffb70a}.st6{fill:#f46f00}.st7{fill:#fff}.st8{fill:#6dcbf7}.st9{fill:#00a8e8}.st10{fill:#f97d00}.st11{fill:#0091e8}.st12{fill:#d3f0f0}.st13{fill:#ffd224}.st14{fill:#f7a100}.st15{fill:#694039}.st16{fill:#e7f1f5}.st17{fill:#ffd100}.st18{fill:#b9e2ec}.st19{fill:#008feb}.st20{fill:#ffe18b}.st21{fill:#6a3f36}.st22{fill:#fac133}.st23{opacity:.44;fill:#fff}.st24{fill:#f6861e}.st25{fill:#30baeb}.st26{fill:#e37a1e}.st27{opacity:.32;fill:#fff}</style><path class="st0" d="M322.5 199.5v6.4H391v-.2c0-11.9-10.1-21.6-22.5-21.6-3 0-5.8.6-8.3 1.6.1-.7.1-1.3.1-2 0-11.9-10.1-21.6-22.5-21.6s-22.5 9.7-22.5 21.6c0 6.3 2.7 11.9 7.2 15.8z" id="XMLID_225_"/><g id="XMLID_1_"><g id="XMLID_181_"><path class="st1" d="M335.5 157.4h3.7v29.9h-3.7z" id="XMLID_184_"/></g><path class="st2" d="M336.3 158.4c15.6 0 28.3-12.7 28.3-28.3V71.8c0-15.6-12.7-28.3-28.3-28.3-15.6 0-28.3 12.7-28.3 28.3v58.3c0 15.7 12.6 28.3 28.3 28.3z" id="XMLID_180_"/><path class="st3" d="M336.3 43.5c13.1 0 24.2 8.9 27.4 21-2.4-6.5-8.7-11.2-16.1-11.2-9.5 0-17.2 7.7-17.2 17.1v50.4c0 9.5-7.7 17.2-17.2 17.2-1.6 0-3.2-.2-4.7-.7-.3-1.7-.5-3.4-.5-5.2V71.8c0-15.7 12.6-28.3 28.3-28.3z" id="XMLID_178_"/></g><path class="st4" d="M349.5 139.9l-3.7-3.3-22.6-19.6-219.6 2.7-19.9 16.9v69.3h262.1v-57.7h2.2c1.7 0 3.1-1.4 3.1-3.1v-1.3c0-1.4-.6-2.9-1.6-3.9z"/><path class="st5" d="M221.9 115.2l33.9 30.4h6.4v3.7h-4v3.8h-4v52.8l-29.1.1-18.5-84.1-2.3-6.7z"/><path class="st6" d="M214.8 25.6L131.5 96c-.5.4-.8 1-.8 1.6V113c0 1.2 1 2.2 2.2 2.2H321L217.6 25.6c-.8-.7-2-.7-2.8 0z"/><path class="st7" d="M209.4 118.5H325c.9 0 1.7-.7 1.7-1.7 0-.9-.7-1.7-1.7-1.7H209.4c-.9 0-1.7.7-1.7 1.7 0 .9.7 1.7 1.7 1.7z"/><path class="st7" d="M231.6 117.8h2.1v2.9h-2.1zm27.4 0h2.1v2.9H259zm27.5 0h2.1v2.9h-2.1zm27.5 0h2.1v2.9H314z"/><path class="st1" d="M312.3 169.1h19.8v36.8h-19.8z"/><path class="st7" d="M331 205.9v-35.8h-17.7v35.8h-2v-37.8H333v37.8z"/><path class="st8" d="M313.3 170.1h17.8V188h-17.8z"/><circle class="st1" cx="328.6" cy="182.7" r=".8"/><path class="st9" d="M316.7 170.1h.7V188h-.7zm4.9 0h.7V188h-.7zm4.7 0h.7V188h-.7z"/><path class="st10" d="M333 168.2h-21.9s2.6-4.2 10.9-4.2c8.4 0 11 4.2 11 4.2z" id="XMLID_93_"/><path class="st9" d="M242.4 205.9v-51.5c0-16.4 13.3-23 29.7-23s29.7 6.6 29.7 23v51.5h-59.4z"/><path class="st11" d="M254.2 153.1h4v-3.7h4v-3.7h-6.4l-7.4-6.6c-3.7 3.6-6 8.7-6 15.4V206h11.8v-52.9z"/><path class="st11" d="M273.1 131.9h-1.6V206h1.6v-74.1zm-10.7 1h-1.6v73h1.6v-73zm-12.5 4V206h1.6v-69.1h-1.6zm44.5 1.2h-1.6v67.8h1.6v-67.8zm-10.5-5.2h-1.6v73h1.6v-73z"/><path class="st7" d="M272.2 130.2c19.7 0 30.9 8.8 30.9 24.2v51.5h-2.4v-51.5c0-19.7-20-21.8-28.5-21.8-8.6 0-28.5 2.1-28.5 21.8v51.5h.2-2.6v-51.5c-.1-15.4 11.2-24.2 30.9-24.2z"/><path class="st12" d="M241.2 154.4v51.5h2.4v-51.5c0-6.7 2.3-11.3 5.7-14.6l-1.8-1.7c-4.1 4.1-6.3 9.6-6.3 16.3z"/><g id="XMLID_172_"><path class="st5" d="M321.7 148.2h-5.4c-.5 0-.9-.4-.9-.9v-1.5c0-.5.4-.9.9-.9h5.4c.5 0 .9.4.9.9v1.5c0 .5-.4.9-.9.9z" id="XMLID_92_"/><path class="st5" d="M332.3 159.7h5.4c.5 0 .9-.4.9-.9v-1.5c0-.5-.4-.9-.9-.9h-5.4c-.5 0-.9.4-.9.9v1.5c0 .5.4.9.9.9z" id="XMLID_91_"/><path class="st5" d="M325.5 143.4h-5.4c-.5 0-.9-.4-.9-.9V141c0-.5.4-.9.9-.9h5.4c.5 0 .9.4.9.9v1.5c0 .5-.4.9-.9.9z" id="XMLID_90_"/></g><g id="XMLID_170_"><path transform="rotate(-180 145.393 62.03)" class="st4" d="M139.2 50.3h12.4v23.5h-12.4z" id="XMLID_171_"/><path class="st10" d="M152.7 50.6H138c-.8 0-1.5-.7-1.5-1.5s.7-1.5 1.5-1.5h14.7c.8 0 1.5.7 1.5 1.5 0 .9-.7 1.5-1.5 1.5z"/></g><path class="st13" d="M51.6 134.3h185.5v71.6H51.6z" id="XMLID_169_"/><path class="st5" d="M51.6 187.7h185.5v3.6H51.6zm0-23.4h185.5v3.6H51.6zm0-11.2h185.5v3.6H51.6zm40.2 38.4h20.9v1H91.8z"/><path class="st10" d="M103.1 153.2H82s2.5-3.8 10.6-3.8 10.5 3.8 10.5 3.8z" id="XMLID_89_"/><path class="st14" d="M85.8 150.5l.9 2.7h3.9l-.8-3.7c-1.7.2-3 .6-4 1zm9.4-1l-.8 3.7h3.7l1-2.8c-1.1-.4-2.4-.7-3.9-.9z" id="XMLID_86_"/><path class="st1" d="M83.7 154h18v36.6h-18z"/><path class="st15" d="M93.3 167.4v-.7h8.3v-8.4l-17.9 18v14.3H91l10.4-10.5H84.1v-.7h17.3v.7l.2-.2v-12.5z"/><path class="st0" d="M97.9 184.1c0 1.5-.7 2.8-.7 2.8s-.7-1.2-.7-2.8.7-2.8.7-2.8.7 1.2.7 2.8z"/><path class="st0" d="M96.8 185.1c.5 1.1.4 2.2.4 2.2s-.9-.6-1.5-1.7-.4-2.2-.4-2.2 1 .6 1.5 1.7z"/><path class="st0" d="M97.5 185.1c-.5 1.1-.4 2.2-.4 2.2s.9-.6 1.5-1.7.4-2.2.4-2.2-.9.6-1.5 1.7z"/><path class="st9" d="M97.2 189.5c-.8 0-1.5-.7-1.5-1.5v-1.6h3v1.6c0 .8-.7 1.5-1.5 1.5z"/><path class="st7" d="M82.2 153.1v38.3h20.9v-38.3H82.2zm19 36.5H84.1v-34.5h17.1v34.5z"/><path class="st7" d="M83.1 165h19.1v2H83.1zm0 12.8h19.1v2H83.1z"/><path class="st7" d="M91.7 153.7h2v36.8h-2z"/><path class="st9" d="M103.1 153.2h10.3v38.3h-10.3z"/><path class="st5" d="M73.2 191.5h20.9v1.1H73.2z"/><path class="st9" d="M71.9 153.2h10.3v38.3H71.9z"/><path class="st10" d="M82.2 191.5h20.9v1.1H82.2z"/><path class="st5" d="M102.6 193.7H82.7c-.3 0-.5-.2-.5-.5v-.5h20.9v.5c0 .2-.2.5-.5.5z"/><path class="st10" d="M208.3 153.2h-21.1s2.5-3.8 10.6-3.8c8-.1 10.5 3.8 10.5 3.8z" id="XMLID_85_"/><path class="st14" d="M190.9 150.5l.9 2.7h3.9l-.8-3.7c-1.6.2-2.9.6-4 1zm9.4-1l-.8 3.7h3.7l1-2.8c-1.1-.4-2.3-.7-3.9-.9z" id="XMLID_82_"/><path class="st1" d="M188.8 154h18v36.6h-18z"/><path class="st15" d="M198.4 167.4v-.7h8.4v-8.4l-18 18v14.3h7.3l10.5-10.5h-17.4v-.7h17.4v.7l.2-.2v-12.5z"/><path class="st7" d="M187.3 153.1v38.3h20.9v-38.3h-20.9zm19 36.5h-17.1v-34.5h17.1v34.5z"/><path class="st7" d="M188.3 165h19.1v2h-19.1zm0 12.8h19.1v2h-19.1z"/><path class="st7" d="M196.8 153.7h2v36.8h-2z"/><path class="st9" d="M208.3 153.2h10.3v38.3h-10.3z"/><path class="st5" d="M196.9 191.5h20.9v1h-20.9z"/><path class="st9" d="M177.1 153.2h10.3v38.3h-10.3z"/><path class="st5" d="M178.3 191.5h20.9v1.1h-20.9z"/><path class="st10" d="M187.3 191.5h20.9v1.1h-20.9z"/><path class="st5" d="M207.7 193.7h-19.9c-.3 0-.5-.2-.5-.5v-.5h20.9v.5c.1.2-.2.5-.5.5z"/><path class="st10" d="M52.6 133.4H236l-84.4-71.9h-12.4z"/><path class="st7" d="M46.6 133.4H243v3.7H46.6zm3 3.7H240v3.7H49.6z"/><path class="st12" d="M49.6 137.1H240v.7H49.6z"/><path class="st9" d="M133.9 155.1h20.7v46.7h-20.7z"/><path class="st7" d="M156.7 203.8h-23.3v-50.7h23.3v50.7zm-21.4-2h19.3v-46.7h-19.3v46.7z"/><path transform="rotate(-180 145.141 204.108)" class="st16" d="M130.8 201.6h28.7v5h-28.7z" id="XMLID_81_"/><path class="st1" d="M137.5 157.1h15v6h-15z"/><path class="st8" d="M150.8 199.7h-11.4v-.4c0-1.1-.9-2.1-2.1-2.1h-.4v-26.6h.4c1.1 0 2.1-.9 2.1-2.1v-.4h11.4v.4c0 1.1.9 2.1 2.1 2.1h.4v26.6h-.4c-1.1 0-2.1.9-2.1 2.1v.4zm-10.6-.9h9.9c.2-1.3 1.2-2.3 2.5-2.5v-25c-1.3-.2-2.3-1.2-2.5-2.5h-9.9c-.2 1.3-1.2 2.3-2.5 2.5v25c1.3.3 2.3 1.3 2.5 2.5z"/><circle class="st1" cx="150.8" cy="184.5" r=".9"/><path class="st7" d="M133.9 164.6h22.2v2h-22.2z"/><path class="st15" d="M152.5 163.1v-5h-5.8l-4.9 5z"/><path class="st10" d="M156.7 153.1h-23.3s2.7-4.2 11.6-4.2 11.7 4.2 11.7 4.2z" id="XMLID_79_"/><path class="st14" d="M137.5 150.2l1 2.9h4.3l-.9-4c-1.8.2-3.2.6-4.4 1.1zm10.4-1.1l-.9 4.1h4.1l1.1-3.1c-1.2-.5-2.6-.8-4.3-1z" id="XMLID_53_"/><path class="st5" d="M52.6 140.9H237v2H52.6z"/><path class="st4" d="M164.5 97L145 80.9 125.7 97v47.5h38.8z"/><path class="st5" d="M125.7 100.7l19.4-16 19.4 16.1V97L145 80.9 125.7 97z"/><path class="st7" d="M167 99.3h-1.4c-.5 0-.9-.2-1.3-.5l-19.3-16-19.1 16c-.4.3-.8.5-1.3.5h-1.7c-.4 0-.8-.3-.8-.8V97c0-.4.3-.8.8-.8h1.4L145 78.9l21 17.4h1.1c.4 0 .8.3.8.8v1.4c-.1.4-.4.8-.9.8z"/><path class="st1" d="M137.6 101.2h15.1v28.6h-15.1z"/><path class="st15" d="M146 111.6h6.2v1.1H145l-7.4 7.4v.6h14.6v1.1h-14.6v8h15V105z"/><path class="st7" d="M154.2 130.9H136v-30.8h18.1v30.8zm-16.2-2h14.1v-26.8H138v26.8z"/><path class="st7" d="M144.1 101.1h2v29.4h-2z"/><path class="st7" d="M137 109.9h16.3v2H137zm0 9.1h16.3v2H137z"/><path class="st10" d="M154.2 100H136s2.1-3.3 9-3.3 9.2 3.3 9.2 3.3z" id="XMLID_52_"/><path class="st14" d="M139.3 97.7l.8 2.3h3.3l-.7-3.1c-1.4.2-2.5.5-3.4.8zm8.1-.8l-.7 3.2h3.2l.8-2.4c-.9-.4-2-.7-3.3-.8z" id="XMLID_49_"/><path class="st5" d="M153.2 141.3h-16.6c-.6 0-1.1-.5-1.1-1.1v-2c0-.6.5-1.1 1.1-1.1h16.6c.6 0 1.1.5 1.1 1.1v2c0 .6-.5 1.1-1.1 1.1z"/><path class="st7" d="M153.2 140.5h-16.6c-.6 0-1.1-.5-1.1-1.1v-2c0-.6.5-1.1 1.1-1.1h16.6c.6 0 1.1.5 1.1 1.1v2c0 .6-.5 1.1-1.1 1.1zM146.9 81h-3.6v-2.8c0-.5.2-.9.5-1.2l.7-.7c.3-.3.9-.3 1.2 0l.7.7c.3.3.5.8.5 1.2V81z"/><g id="XMLID_43_"><path class="st17" d="M170.9 170.7l.8-4.9h-7.6l.7 4.9z" id="XMLID_48_"/><path class="st1" d="M167.9 173.8c-.2 0-.4-.2-.4-.4v-7.6c0-.2.2-.4.4-.4s.4.2.4.4v7.6c0 .2-.2.4-.4.4z" id="XMLID_47_"/><path class="st1" d="M171.1 172.7h-6.4l-1.1-7.3h8.6l-1.1 7.3zm-5.7-.9h4.9l.8-5.6h-6.6l.9 5.6z" id="XMLID_46_"/><path class="st1" d="M167.6 163l-4.6 2.2c-.5.2-.3 1 .2 1h9.1c.6 0 .7-.8.2-1l-4.6-2.2c.1-.1-.1-.1-.3 0z" id="XMLID_45_"/><path class="st1" d="M166.3 170.4h3.1v1.9h-3.1z" id="XMLID_44_"/></g><path class="st7" d="M222.4 30.9s.9-.3.9-1.9c0-1.6-4.9-3-4.9-6 0-2.6 1.4-3.4 3.2-3.4 1.7 0 2.8 2 2.3 2.6-.4.6-1.2-.8-2.1-.8-1.1 0-1.7.8-1.4 1.8.8 2.1 6.8 1.8 8.2 5.2s-1.8 6.7-1.8 6.7l-4.4-4.2zm-12.6 0s-.9-.3-.9-1.9c0-1.6 4.9-3 4.9-6 0-2.6-1.4-3.4-3.2-3.4-1.7 0-2.8 2-2.3 2.6.4.6 1.2-.8 2.1-.8 1.1 0 1.7.8 1.4 1.8-.8 2.1-6.8 1.8-8.2 5.2s1.8 6.7 1.8 6.7l4.4-4.2zm7.7-5.3h-2.6l-1.1-6.2 2.3-13.8 2.2 13.8z"/><path class="st7" d="M207.7 32.1l-.5-2.2 3.8-4.8 2.4-2.1h5.5l3 3.3 2.7 2.1-.7 3.7h-16.2m-157 110.3c-.3 0-.5-.1-.7-.3-.2-.2-.3-.5-.3-.7 0-.3.1-.5.3-.7.4-.4 1-.4 1.4 0 .2.2.3.4.3.7 0 .3-.1.5-.3.7-.2.2-.5.3-.7.3z"/><g id="XMLID_38_"><path class="st2" d="M206.2 193.6c.3 0 .5 0 .8.1v-.5c0-2.2 1.8-4.1 4.1-4.1 1.8 0 3.4 1.2 3.9 2.9.7-.7 1.7-1.1 2.7-1.1.8 0 1.5.2 2.2.6.2-2 1.9-3.6 4-3.6 2.2 0 4.1 1.8 4.1 4.1 0 .2 0 .4-.1.5.4-.2.9-.3 1.4-.3 2.1 0 3.8 1.7 3.8 3.8 0 2.1-1.7 3.8-3.8 3.8-.5 0-.9-.1-1.3-.2v3.1h-19.8v-1.6c-.6.3-1.2.5-1.9.5-2.2 0-4.1-1.8-4.1-4.1 0-2.1 1.8-3.9 4-3.9z" id="XMLID_42_"/><path class="st0" d="M206.2 193.6c.3 0 .5 0 .8.1v-.5c0-1.5.8-2.7 1.9-3.5-.2 1-.4 1.8 0 2.7.4.8 1.3 1.4 2.2 1.6-.5.7-.5 1.7 0 2.4.4.7 1.2 1.3 1.9 1.7 1.6.9 3.5 1.4 5.3.9-.2 1.1-.5 2.2-1.1 3.1-.1.2-.3.3-.4.5h-8.7V201c-.6.3-1.2.5-1.9.5-2.2 0-4.1-1.8-4.1-4.1.1-2 1.9-3.8 4.1-3.8z" id="XMLID_41_"/><path class="st7" d="M234.7 199.1l-3 7.4H203l-3-7.4c-.4-1 .3-2.1 1.4-2.1h31.9c1.1 0 1.8 1.1 1.4 2.1z" id="XMLID_39_"/></g><g id="XMLID_20_"><circle class="st0" cx="255.4" cy="196.5" r="3.7" id="XMLID_37_"/><circle class="st0" cx="253.1" cy="196.5" r="3.7" id="XMLID_36_"/><circle class="st0" cx="265" cy="196.5" r="3.7" id="XMLID_35_"/><circle class="st0" cx="259.1" cy="190.6" r="3.3" id="XMLID_34_"/><circle class="st0" cx="255.4" cy="192.5" r="3.3" id="XMLID_33_"/><circle class="st0" cx="263.5" cy="191.4" r="2.7" id="XMLID_32_"/><path class="st7" d="M260.9 206.5h-3.5c-2.8 0-5.3-2-5.8-4.8l-.8-4.6h16.7l-.8 4.6c-.5 2.7-3 4.8-5.8 4.8z" id="XMLID_31_"/><circle class="st0" cx="260.8" cy="196" r="3.3" id="XMLID_21_"/><g id="XMLID_1029_"><g id="XMLID_1030_"><g id="XMLID_1042_"><path id="XMLID_1044_" class="st7" d="M254.8 191.2c0 .6-.3 1.3-.7 1.3-.4 0-.7-.6-.7-1.3s.3-1.1.7-1.1c.4 0 .7.5.7 1.1z"/><path id="XMLID_1043_" class="st7" d="M253.4 194.7c0-.6.3-1.3.7-1.3.4 0 .7.6.7 1.3s-.3 1.1-.7 1.1c-.4 0-.7-.5-.7-1.1z"/></g><g id="XMLID_1039_"><path id="XMLID_1041_" class="st7" d="M253.4 191.3c.4.4.7 1.1.4 1.4-.3.3-.9 0-1.4-.4-.4-.4-.6-1-.3-1.3.3-.3.8-.2 1.3.3z"/><path id="XMLID_1040_" class="st7" d="M254.8 194.6c-.4-.4-.7-1.1-.4-1.4.3-.3.9 0 1.4.4.4.4.6 1 .3 1.3-.3.3-.9.2-1.3-.3z"/></g><g id="XMLID_1036_"><path id="XMLID_1038_" class="st7" d="M252.4 192.3c.6 0 1.3.3 1.3.7s-.6.7-1.3.7-1.1-.3-1.1-.7.4-.7 1.1-.7z"/><path id="XMLID_1037_" class="st7" d="M255.8 193.6c-.6 0-1.3-.3-1.3-.7s.6-.7 1.3-.7 1.1.3 1.1.7-.5.7-1.1.7z"/></g><g id="XMLID_1032_"><path id="XMLID_1035_" class="st7" d="M252.4 193.7c.4-.4 1.1-.7 1.4-.4.3.3 0 .9-.4 1.4-.4.4-1 .6-1.3.3-.3-.3-.2-.9.3-1.3z"/><path id="XMLID_1033_" class="st7" d="M255.8 192.2c-.4.4-1.1.7-1.4.4-.3-.3 0-.9.4-1.4s1-.6 1.3-.3c.2.3.1.9-.3 1.3z"/></g><circle id="XMLID_1031_" class="st4" cx="254.1" cy="193" r="1"/></g></g><g id="XMLID_70_"><g id="XMLID_71_"><g id="XMLID_102_"><path id="XMLID_104_" class="st7" d="M261.7 193.2c0 .5-.2 1-.5 1s-.5-.5-.5-1 .2-.9.5-.9.5.4.5.9z"/><path id="XMLID_103_" class="st7" d="M260.6 195.9c0-.5.2-1 .5-1s.5.5.5 1-.2.9-.5.9-.5-.4-.5-.9z"/></g><g id="XMLID_99_"><path id="XMLID_101_" class="st7" d="M260.6 193.2c.4.4.5.9.3 1.1s-.7 0-1.1-.3c-.4-.4-.4-.8-.2-1s.6-.1 1 .2z"/><path id="XMLID_100_" class="st7" d="M261.7 195.9c-.4-.4-.5-.9-.3-1.1s.7 0 1.1.3.4.8.2 1c-.2.3-.6.2-1-.2z"/></g><g id="XMLID_96_"><path id="XMLID_98_" class="st7" d="M259.8 194c.5 0 1 .2 1 .5s-.5.5-1 .5-.9-.2-.9-.5c0-.2.4-.5.9-.5z"/><path id="XMLID_97_" class="st7" d="M262.5 195.1c-.5 0-1-.2-1-.5s.5-.5 1-.5.9.2.9.5-.4.5-.9.5z"/></g><g id="XMLID_73_"><path id="XMLID_95_" class="st7" d="M259.8 195.2c.4-.4.9-.5 1.1-.3s0 .7-.3 1.1c-.4.4-.8.4-1 .2-.2-.3-.1-.7.2-1z"/><path id="XMLID_94_" class="st7" d="M262.5 194c-.4.4-.9.5-1.1.3s0-.7.3-1.1c.4-.4.8-.4 1-.2s.2.7-.2 1z"/></g><circle id="XMLID_72_" class="st4" cx="261.2" cy="194.6" r=".8"/></g></g><g id="XMLID_105_"><g id="XMLID_106_"><g id="XMLID_122_"><path id="XMLID_127_" class="st7" d="M263.6 187.7c0 .5-.2 1-.5 1s-.5-.5-.5-1 .2-.9.5-.9.5.4.5.9z"/><path id="XMLID_126_" class="st7" d="M262.5 190.4c0-.5.2-1 .5-1s.5.5.5 1-.2.9-.5.9-.5-.4-.5-.9z"/></g><g id="XMLID_119_"><path id="XMLID_121_" class="st7" d="M262.4 187.7c.4.4.5.9.3 1.1s-.7 0-1.1-.3c-.4-.4-.4-.8-.2-1s.7-.2 1 .2z"/><path id="XMLID_120_" class="st7" d="M263.6 190.4c-.4-.4-.5-.9-.3-1.1s.7 0 1.1.3c.4.4.4.8.2 1s-.6.1-1-.2z"/></g><g id="XMLID_113_"><path id="XMLID_118_" class="st7" d="M261.7 188.5c.5 0 1 .2 1 .5s-.5.5-1 .5-.9-.2-.9-.5.4-.5.9-.5z"/><path id="XMLID_117_" class="st7" d="M264.4 189.6c-.5 0-1-.2-1-.5s.5-.5 1-.5.9.2.9.5-.4.5-.9.5z"/></g><g id="XMLID_110_"><path id="XMLID_112_" class="st7" d="M261.7 189.6c.4-.4.9-.5 1.1-.3s0 .7-.3 1.1c-.4.4-.8.4-1 .2s-.2-.6.2-1z"/><path id="XMLID_111_" class="st7" d="M264.4 188.5c-.4.4-.9.5-1.1.3s0-.7.3-1.1.8-.4 1-.2.1.6-.2 1z"/></g><circle id="XMLID_109_" class="st4" cx="263" cy="189" r=".8"/></g></g></g><g id="XMLID_2_"><circle class="st2" cx="121.4" cy="196.6" r="3.7" id="XMLID_18_"/><circle class="st2" cx="123.7" cy="196.6" r="3.7" id="XMLID_17_"/><circle class="st2" cx="111.9" cy="196.6" r="3.7" id="XMLID_15_"/><circle class="st2" cx="117.7" cy="190.7" r="3.3" id="XMLID_14_"/><circle class="st2" cx="121.4" cy="192.6" r="3.3" id="XMLID_13_"/><circle class="st2" cx="113.3" cy="191.5" r="2.7" id="XMLID_7_"/><path class="st7" d="M116 206.5h3.5c2.8 0 5.2-2 5.7-4.8l.8-4.6h-16.6l.8 4.6c.5 2.7 3 4.8 5.8 4.8z" id="XMLID_6_"/><circle class="st2" cx="116" cy="196.1" r="3.2" id="XMLID_5_"/></g><path class="st18" d="M156.9 211.8l-2.1-3.8h-18.4l-2.1 3.8z"/><path class="st7" d="M241.2 46.6l-25-21.7-25.5 21.7z"/><path class="st1" d="M235.1 46.6c-.8-2.3-3-4-5.6-4-.3 0-.5 0-.8.1v-.1c0-3.3-2.7-6-6-6h-.6v-.3c0-3.3-2.7-6-6-6s-6 2.7-6 6v.3h-.6c-3.3 0-6 2.7-6 6v.1c-.2 0-.5-.1-.8-.1-2.6 0-4.8 1.7-5.6 4h38z"/><path class="st10" d="M217.5 25.4c-.8-.7-1.9-.7-2.7 0l-26.1 22.4 2.9-.1 24.6-20.9 24.9 21.8c.3-.1.7-.2 1.1-.2h.6l.5-.6-25.8-22.4z"/><circle class="st7" cx="216.2" cy="41.3" r="1.6"/><path class="st14" d="M187.6 48.6h56.5l-2.3-2h-51.9z"/><path class="st7" d="M216.2 35.4c-.7 0-1.3-.6-1.3-1.3v-4.7h2.5v4.7c0 .7-.5 1.3-1.2 1.3z"/><path transform="rotate(-180 344.816 196.973)" class="st9" d="M343.9 188h1.9v17.9h-1.9z"/><path class="st8" d="M331 188h12.8v17.9H331z"/><g id="XMLID_54_"><g id="XMLID_68_"><path class="st1" d="M391.2 220.6l-1.6-5.8c-.3-1-1.2-1.7-2.2-1.7h-2c-1 0-1.9.7-2.2 1.7l-1.6 5.8h-2.4l1.7-6.4c.5-2 2.3-3.4 4.4-3.4h2c2.1 0 3.9 1.4 4.4 3.4l1.7 6.4h-2.2z" id="XMLID_69_"/></g><g id="XMLID_64_"><g id="XMLID_66_"><path class="st1" d="M350.4 212.7h-10c-2.6 0-4.8-1.8-5.4-4.3l-2.4-10.6c-.1-.6.2-1.2.9-1.4.6-.1 1.2.2 1.4.9l2.4 10.6c.3 1.5 1.7 2.5 3.2 2.5h10c.6 0 1.1.5 1.1 1.1 0 .7-.5 1.2-1.2 1.2z" id="XMLID_67_"/></g><path class="st1" d="M337.8 220.3l1.6-5.8c.3-1 1.2-1.7 2.2-1.7h2c1 0 1.9.7 2.2 1.7l1.6 5.8h2.4l-1.7-6.4c-.5-2-2.3-3.4-4.4-3.4h-2c-2.1 0-3.9 1.4-4.4 3.4l-1.7 6.4h2.2z" id="XMLID_65_"/></g><g id="XMLID_58_"><path transform="rotate(-180 367.214 202.84)" class="st9" d="M366.2 185.5h2v34.8h-2z" id="XMLID_63_"/><path transform="rotate(-180 367.214 186.805)" class="st19" d="M366.2 185.5h2v2.7h-2z" id="XMLID_62_"/><path class="st14" d="M367.3 168l-9.9 14.4h40.3z"/><path class="st4" d="M357.4 182.4h-20.5l30.4-14.4z" id="XMLID_61_"/><path class="st10" d="M394.4 185.6h-33.7c-1.8 0-3.3-1.5-3.3-3.3h40.3c0 1.9-1.5 3.3-3.3 3.3z" id="XMLID_60_"/><path class="st14" d="M355.4 185.6H339c-1.2 0-2.1-.9-2.1-2.1v-1.2h20.6v1.2c0 1.2-.9 2.1-2.1 2.1z" id="XMLID_59_"/><path class="st20" d="M367.3 168l-28.7 14.4h-1.7z"/><path class="st14" d="M368.3 168.5v-1.2c0-.6-.5-1-1-1-.6 0-1 .5-1 1v1.2h2z"/></g><path class="st21" d="M360.9 220.3l15.1-15.8-1.5-1.5-16.5 17.3z"/><path class="st1" d="M352.4 204.9h25c.7 0 1.3-.6 1.3-1.3 0-.7-.6-1.3-1.3-1.3h-25c-.7 0-1.3.6-1.3 1.3 0 .7.6 1.3 1.3 1.3z" id="XMLID_57_"/><path class="st1" d="M371.6 220.3L355.1 203l-1.5 1.5 15.1 15.8z"/><g id="XMLID_55_"><path class="st1" d="M379.3 212.7h10c2.6 0 4.8-1.8 5.4-4.3l2.4-10.6c.1-.6-.2-1.2-.9-1.4-.6-.1-1.2.2-1.4.9l-2.4 10.6c-.3 1.5-1.7 2.5-3.2 2.5h-10c-.6 0-1.1.5-1.1 1.1 0 .7.5 1.2 1.2 1.2z" id="XMLID_56_"/></g></g><path class="st2" d="M7.7 206h61.7v-4.2c0-1.7-1.4-3.1-3.1-3.1H10.8c-1.7 0-3.1 1.4-3.1 3.1v4.2z" id="XMLID_40_"/><g id="XMLID_22_"><g id="XMLID_27_"><path class="st22" d="M279.6 209.7c.2 0 .4-.2.4-.4v-3.6c0-.2-.2-.4-.4-.4s-.4.2-.4.4v3.6c-.1.2.1.4.4.4z" id="XMLID_30_"/><path class="st22" d="M281.1 209.7c.2 0 .4-.2.4-.4v-3.6c0-.2-.2-.4-.4-.4s-.4.2-.4.4v3.6c-.1.2.1.4.4.4z" id="XMLID_29_"/><path class="st10" d="M278.7 199.3c2.2-1.1 7.9.5 7.9.5s-.3 6-3.8 7.5c-2.3 1-5 .3-6.1-2-1.1-2.1-.3-4.8 2-6z" id="XMLID_28_"/></g><path class="st10" d="M277.6 196.4c-.7 0-1.3.6-1.3 1.3v5.6l2.7-2.5v-3.2c-.1-.6-.7-1.2-1.4-1.2z" id="XMLID_26_"/><path class="st22" d="M276.2 197.7l-1.3 1.2h1.3z" id="XMLID_25_"/><path class="st10" d="M285.4 198.1v2.3l-4.8-1.2 4.6-1.2c.1 0 .2.1.2.1z" id="XMLID_24_"/><path class="st14" d="M281.4 204.8c.5 0 .9-.1 1.4-.2 1.6-.5 2.2-2.4 2.4-3.7-.9-.2-2.3-.4-3.5-.4-.9 0-1.3.1-1.5.2-1.4.6-1.9 1.9-1.2 3 .4.7 1.3 1.1 2.4 1.1z" id="XMLID_23_"/></g><g id="XMLID_173_"><g id="XMLID_176_"><path class="st1" d="M32.9 187.9h4v31.5h-4z" id="XMLID_177_"/></g><path class="st2" d="M34 188.7c13.1 0 23.6-10.6 23.6-23.6v-49.3c0-13.1-10.6-23.6-23.6-23.6-13.1 0-23.6 10.6-23.6 23.6v49.3c-.1 13.1 10.5 23.6 23.6 23.6z" id="XMLID_175_"/><path class="st3" d="M34 92.2c11 0 20.2 7.5 22.8 17.6-2-5.4-7.3-9.3-13.4-9.3-7.9 0-14.3 6.4-14.4 14.3v40.9c0 7.9-6.4 14.4-14.4 14.4a16 16 0 0 1-3.9-.5c-.3-1.4-.4-2.8-.4-4.3V116c0-13.2 10.6-23.8 23.7-23.8z" id="XMLID_174_"/><path class="st2" d="M35.3 220c-1-2.1-3.2-3.6-5.7-3.6s-4.7 1.5-5.7 3.6h11.4z"/><path class="st2" d="M45.9 220c-1.2-2.5-3.8-4.3-6.8-4.3s-5.6 1.8-6.8 4.3h13.6z"/></g><g id="XMLID_10039_"><path id="XMLID_124_" class="st23" d="M308.1 195.3h2.1c.8 0 1.4-.6 1.4-1.4 0-.8-.6-1.4-1.4-1.4h-.4c-.9 0-1.6-.7-1.6-1.6 0-.9.7-1.6 1.6-1.6h2.7c.8 0 1.4-.6 1.4-1.4 0-.8.6-1.4 1.4-1.4h.6c.6 0 1-.5 1-1v-.2c0-.6-.5-1-1-1h-5.2c-.6 0-1.1-.5-1.1-1.1 0-.8-.6-1.4-1.4-1.4-.6 0-1.1-.5-1.1-1.1 0-.6.5-1.1 1.1-1.1h3.2c.6 0 1.1.5 1.1 1.1 0 .7.5 1.2 1.2 1.2h4.1c.7 0 1.3.6 1.3 1.3v1.4c0 .8.6 1.4 1.4 1.4.7 0 1.2.5 1.2 1.2v.1c0 .7-.5 1.2-1.2 1.2H318c-.5 0-1 .4-1 1 0 .5.4 1 1 1h.6c.6 0 1.1.5 1.1 1.1 0 .6-.5 1.1-1.1 1.1h-1.8c-.7 0-1.3.6-1.3 1.3 0 .7.6 1.3 1.3 1.3h1.4c.5 0 .8.4.8.8 0 .5.4.8.8.8h.5c.8 0 1.4.6 1.4 1.4v.7h-15.8v-1.3c0-1.4 1-2.4 2.2-2.4z"/><path id="XMLID_10040_" class="st24" d="M309.5 211.1c1.1 1 2.6 1.7 4.3 1.7 1.7 0 3.2-.6 4.3-1.7h-8.6z"/><g id="XMLID_10041_"><path id="XMLID_1141_" class="st1" d="M306.2 221.4h-.2c-.3-.1-.5-.5-.4-.8l5.3-14.8c.1-.3.5-.5.8-.4.3.1.5.5.4.8l-5.3 14.8c-.1.2-.4.4-.6.4z"/></g><g id="XMLID_10042_"><path id="XMLID_1112_" transform="rotate(-20.199 318.857 213.41)" class="st1" d="M318.2 205.5h1.2v15.7h-1.2z"/></g><path id="XMLID_10043_" class="st24" d="M322.6 198.8c0 4.8-3.9 8.7-8.7 8.7-4.8 0-8.7-3.9-8.7-8.7h17.4z"/><g id="XMLID_133_"><path id="XMLID_1106_" class="st26" d="M318.5 198.8c0 4.8-2.1 8.7-4.6 8.7 4.8 0 8.7-3.9 8.7-8.7h-4.1z"/></g><g id="XMLID_10044_"><path id="XMLID_1111_" transform="rotate(-82.975 314.267 218.258)" class="st1" d="M313.7 211.5h1.2V225h-1.2z"/></g><circle id="XMLID_10046_" class="st1" cx="321" cy="219.1" r="2"/><circle id="XMLID_10047_" class="st9" cx="321" cy="219.1" r="1"/><path id="XMLID_123_" class="st27" d="M316.5 179.6h-2.1c-.4 0-.8-.3-.8-.8 0-.4.3-.8.8-.8h2.1c.4 0 .8.3.8.8-.1.5-.4.8-.8.8z"/><path id="XMLID_125_" class="st27" d="M321.8 194.2h-1.9c-.4 0-.8-.3-.8-.8 0-.4.3-.8.8-.8h1.9c.4 0 .8.3.8.8 0 .4-.4.8-.8.8z"/></g><g id="XMLID_252_"><g id="XMLID_922_"><path class="st5" d="M68.2 231.5c-.4-.1-.7-.6-.6-1l1.8-6.1c.1-.4.6-.7 1-.6s.7.6.6 1l-1.8 6.1c-.1.5-.6.7-1 .6z" id="XMLID_929_"/><path class="st5" d="M72.1 231.9c-.4.1-.9-.2-1-.6l-1.2-6.3c-.1-.4.2-.9.6-1 .4-.1.9.2 1 .6l1.2 6.3c.1.5-.2 1-.6 1z" id="XMLID_928_"/><path class="st14" d="M75.5 213.2c-4.1-2.1-14.6 1-14.6 1s.5 11 7 13.8c4.2 1.8 9.1.5 11.2-3.6 2.1-4.1.5-9.1-3.6-11.2z" id="XMLID_927_"/></g><path class="st14" d="M77.6 207.8c1.4 0 2.5 1.1 2.5 2.5v10.3l-5-4.5v-5.8c0-1.4 1.1-2.5 2.5-2.5z" id="XMLID_921_"/><path class="st5" d="M80 210.2l2.5 2.3H80z" id="XMLID_716_"/><path class="st14" d="M63.1 211v4.3l8.8-2.2-8.5-2.2c-.1 0-.3 0-.3.1z" id="XMLID_715_"/><path class="st4" d="M70.5 223.3c-.8 0-1.7-.1-2.5-.4-2.8-1-4-4.5-4.3-6.8 1.7-.3 4.3-.7 6.5-.7 1.7 0 2.4.2 2.7.3 2.5 1 3.5 3.5 2.2 5.5-1 1.3-2.7 2.1-4.6 2.1z" id="XMLID_253_"/></g></svg>