<svg id="LINKS" xmlns="http://www.w3.org/2000/svg" width="180" height="232"><style>.st0{fill:#ffb70a}.st1{fill:#6dcbf7}.st2{fill:#00a8e8}.st3{fill:#62c3ec}.st4{fill:#53241b}.st5{fill:#fdcc2e}.st6{fill:#fff}.st7{fill:#f97d00}.st8{fill:#f8b000}.st9{fill:none;stroke:#f8b000;stroke-width:4;stroke-miterlimit:10}.st10{fill:#c0d219}.st11{fill:#acc700}.st12{fill:#85af05}.st13{fill:#c9dd4b}.st14{fill:#b6d10c}.st15{fill:#0071b3}.st16{fill:none;stroke:#55241a;stroke-miterlimit:10}.st17{fill:#f89900}.st18{fill:#724941}.st19{fill:#724940}</style><g id="XMLID_1019_"><path class="st0" d="M76.2 56.1c.2 0 .5-.2.5-.5v-3.8c0-.2-.2-.5-.5-.5-.2 0-.5.2-.5.5v3.8c0 .3.2.5.5.5zm-1.8 0c.2 0 .5-.2.5-.5v-3.8c0-.2-.2-.5-.5-.5-.2 0-.5.2-.5.5v3.8c.1.3.3.5.5.5z"/><path class="st1" d="M75.7 44.3l7.3 5c-1 2.5-3.4 4.2-6.2 4.2-3.7 0-6.6-3-6.6-6.6 0-.9.2-1.8.5-2.6h5z"/><path class="st0" d="M70.8 41.8H69s.2-.7.9-1.2c.3-.3.6-.4.8-.5v1.7z"/><path class="st2" d="M71.8 42.5c0-.3-.3-.6-.6-.6h-.4V40c0-1.3 1-2.5 2.2-2.6 1.5-.1 2.7 1 2.7 2.5v4.5L70.2 47c0-.8.1-1.5.4-2.2l.3-.6.8-1.5c.1 0 .1-.1.1-.2zM88.4 53l-5.9-4-1.3 1.9 4 2.7c1.1.7 2.5.5 3.2-.6z"/><path class="st3" d="M82.8 50c-.8 1.7-2.4 2.9-4.2 3.4-.5-.2-.9-.4-1.3-.6-2.5-1.7-3.1-5-1.4-7.5l6.9 4.7z"/><path class="st1" d="M75.8 44.4c-1.7 2.5-1 5.8 1.4 7.5 2.5 1.7 5.8 1 7.5-1.4l-8.9-6.1z"/><path class="st2" d="M82.4 48.9l-3.2 3.9c.6.1 1.3.1 1.9.1l2.5-3.1-1.2-.9zm-5.7 2.6c.2.1.3.3.5.4.2.2.5.3.8.4l3.4-4.1-1.2-.8-3.5 4.1z"/><path class="st4" d="M43 88.7h4.9v133.1H43z"/><path class="st4" d="M50.1 223.8v-43.4c0-1.5-1.2-2.7-2.7-2.7h-4c-1.5 0-2.7 1.2-2.7 2.7v43.4h9.4z"/><path id="XMLID_1162_" class="st5" d="M21.6 64.2H9.8c-2.9 0-5.2-2.3-5.2-5.2h22.2c0 2.9-2.3 5.2-5.2 5.2z"/><path id="XMLID_1161_" class="st5" d="M83.1 64.2H71.2c-2.9 0-5.2-2.3-5.2-5.2h22.2c.1 2.9-2.2 5.2-5.1 5.2z"/><g id="XMLID_1155_"><path id="XMLID_1158_" class="st4" d="M45.4 92.5c-1.3 0-2.3-1-2.3-2.3V78.3c0-.1 0-7.2-5.1-12.4-3.7-3.7-9.2-5.6-16.3-5.6H4.6c-1.3 0-2.3-1-2.3-2.3 0-1.3 1-2.3 2.3-2.3h17.1c8.4 0 15 2.4 19.6 7 6.4 6.6 6.4 15.2 6.4 15.6v11.9c0 1.3-1.1 2.3-2.3 2.3z"/></g><g id="XMLID_1151_"><path id="XMLID_1152_" class="st4" d="M45.4 92.5c-1.3 0-2.3-1-2.3-2.3V78.3c0-.3-.1-9 6.4-15.5 4.6-4.7 11.2-7 19.6-7h17.1c1.3 0 2.3 1 2.3 2.3 0 1.3-1 2.3-2.3 2.3H69.1c-7.2 0-12.7 1.9-16.4 5.7-5.1 5.2-5.1 12.2-5.1 12.3v12c.1 1.1-1 2.1-2.2 2.1z"/></g><path id="XMLID_1148_" class="st2" d="M62.1 125.8H28.6c-2.1 0-3.8-1.7-3.8-3.8V98.7c0-2.1 1.7-3.8 3.8-3.8h33.5c2.1 0 3.8 1.7 3.8 3.8V122c-.1 2.1-1.7 3.8-3.8 3.8z"/><path id="XMLID_1143_" class="st6" d="M62.1 98c.4 0 .7.3.7.7V122c0 .4-.3.7-.7.7H28.6c-.4 0-.7-.3-.7-.7V98.7c0-.4.3-.7.7-.7h33.5m0-1H28.6c-1 0-1.7.8-1.7 1.7V122c0 1 .8 1.7 1.7 1.7h33.5c1 0 1.7-.8 1.7-1.7V98.7c.1-.9-.7-1.7-1.7-1.7z"/><g id="XMLID_1139_"><path id="XMLID_1140_" class="st6" d="M57.2 108.3v-2.2c0-.5-.4-.9-.9-.9s-.9.4-.9.9v.7l-3-3c-.4-.4-.9-.4-1.3 0l-6.5 6.5c-.2.2-.3.4-.3.6v6.9c0 .5.4.9.9.9h.3c.5 0 .9-.4.9-.9v-4.4c0-.5.4-.9.9-.9H49c.5 0 .9.4.9.9v4.4c0 .5.4.9.9.9h7.6c.5 0 .9-.4.9-.9v-6.6c0-.2-.1-.5-.3-.6l-1.7-1.7c0-.2-.1-.4-.1-.6zm-.8 8.1h-3.7c-.5 0-.9-.4-.9-.9v-2c0-.5.4-.9.9-.9h3.7c.5 0 .9.4.9.9v2c0 .4-.4.9-.9.9z"/></g><g id="XMLID_1042_"><g id="XMLID_1136_"><path id="XMLID_1137_" class="st6" d="M38.1 119.2c-.2 0-.3-.1-.4-.3l-1.7-3-1.3 1.9-2.4-.7c-.3-.1-.4-.4-.3-.6.1-.3.4-.4.6-.3l1.7.5L36 114l2.5 4.4c.1.2.1.5-.2.7 0 0-.1.1-.2.1z"/></g><g id="XMLID_1133_"><g id="XMLID_1134_"><path id="XMLID_1135_" class="st6" d="M34.3 114.2c-.2 0-.4-.2-.5-.4l-.3-1.4c0-.1 0-.3.1-.4.1-.1.2-.2.4-.2l1.9-.2c.3 0 .5.2.5.5s-.2.5-.5.5l-1.4.1.2.9c.1.3-.1.5-.4.6z"/></g></g><g id="XMLID_1048_"><g id="XMLID_1131_"><path id="XMLID_1132_" class="st6" d="M38.8 114.3c-.2.1-.4.1-.5-.1l-1.3-1.3c-.2-.2-.2-.5 0-.7.2-.2.5-.2.7 0l1 1 .9-.5c.2-.1.6 0 .7.2.1.2 0 .6-.2.7l-1.3.7z"/></g></g><g id="XMLID_1046_"><path id="XMLID_1047_" class="st6" d="M35.4 114.7l-.1-2.4c0-.4.4-.8.9-.6l1 .3c.6.2.9.8.6 1.4l-1 2.4c-.2.5-1.5-.4-1.4-1.1z"/></g><g id="XMLID_1044_"><circle id="XMLID_1045_" class="st6" cx="37.3" cy="109.8" r="1.3"/></g></g><g id="XMLID_1040_"><circle id="XMLID_1041_" class="st6" cx="42.7" cy="103.5" r="1.7"/></g></g><path id="XMLID_1935_" transform="rotate(179.231 136.203 209.565) scale(.99999)" class="st4" d="M131.7 206.5h9v6.2h-9z"/><path class="st0" d="M129.7 214.1l-1.3 5.9 1.2-1.1-10.1 2.5c-.7.2-1.1.8-.9 1.5.2.6.8 1 1.4.9l10.2-1.7c.5-.1 1-.5 1.2-1l.1-.2 2.1-5.6c.4-1.1-.1-2.3-1.2-2.7-1.1-.4-2.3.1-2.7 1.2.1.2.1.3 0 .3zm11.5 1.2l4.4 4.2-.5-.9 3.1 11.7c.2.7.9 1.1 1.6.9.7-.2 1.1-.8 1-1.5l-2.1-11.9c-.1-.3-.2-.6-.4-.8l-.1-.1-4.1-4.5c-.8-.8-2.1-.9-2.9-.1-.8.8-.9 2.1-.1 2.9 0 0 .1 0 .1.1z"/><path id="XMLID_18_" class="st4" d="M146.8 214l-4.2-4.4-8.5-.3 9.2 8.9z"/><path id="XMLID_17_" class="st4" d="M133.6 218.4l3.7-8.8-7-.4-1.7 7.7z"/><path id="XMLID_1931_" class="st0" d="M142 186.7l-.6 11.9-5.6.1.9-12.5c1.7.1 3.6.3 5.3.5z"/><path id="XMLID_1930_" class="st0" d="M147.6 177.3c-.2-.1-2-.8-2.1-.8l-13.9.2.1 6.1c.1 4.4 3.7 7.9 8.1 7.9 4.4-.1 7.9-3.7 7.9-8.1-.1-.1-.1-5.3-.1-5.3z"/><path id="XMLID_1926_" class="st6" d="M144.8 184.7c-.5 1.4-1.8 2.3-3.3 2.1-1.5-.1-2.7-1.3-2.9-2.7l6.2.6z"/><path id="XMLID_1924_" class="st2" d="M131 209.8l11.7-.1 3.2-16c0-1.2-1-2.2-2.3-2.2h-1.9s-.1 3.3-2.6 3.3c-3.1 0-2.9-3.2-2.9-3.2H135c-1.3 0-2.1 1.2-2.1 2.4l-2.2 9.7-1.4 4.5c.1.9.8 1.7 1.7 1.6z"/><path id="XMLID_1918_" class="st2" d="M145.5 192.6l4.2 6.6-3.8 2.5-1.6-2.4z"/><path id="XMLID_1917_" class="st0" d="M148.3 230.5l5.9-1.6c.4-.1.8.1.9.5.1.4-.1.8-.5.9l-5.9 1.6-.4-1.4z"/><path id="XMLID_1915_" class="st0" d="M120 221.1l.7 6c0 .4-.2.8-.7.8-.4 0-.8-.2-.8-.7l-.7-6 1.5-.1z"/><path class="st7" d="M148 194.3l-4.9.3-.2-3.1c0-.7.5-1.2 1.1-1.3l3.7-.2.3 4.3z"/><path class="st5" d="M161.1 195.4l-10.7.6c-2 .1-3.7-1.4-3.8-3.4-.1-2 1.4-3.7 3.4-3.8l10.7-.6c2-.1 3.7 1.4 3.8 3.4.1 2-1.4 3.7-3.4 3.8z"/><path transform="rotate(-3.282 151.025 192.866) scale(1.00004)" class="st7" d="M150.4 188.7h1.3v8.4h-1.3z"/><path transform="rotate(-3.282 159.387 192.386) scale(1.00004)" class="st7" d="M158.7 188.2h1.3v8.4h-1.3z"/><path class="st7" d="M146.7 196.7l-.2-3.2H143l.3 5.4c.1.9.8 1.6 1.8 1.6l19-.9c.5 0 .9-.5.9-1l-.1-2.4c0-.3-.3-.6-.6-.6l-17.6 1.1z"/><path transform="rotate(-3.282 162.082 197.273) scale(1.00004)" class="st7" d="M151.3 196.2h21.5v2.1h-21.5z"/><path class="st2" d="M172.5 198.3h-.7c-.2 0-.4-.2-.4-.4l-.1-2.4c0-.2.2-.4.4-.4h.7c.2 0 .4.2.4.4l.1 2.4c0 .2-.2.3-.4.4z"/><path class="st2" d="M173.9 197.4l-.9.1c-.2 0-.3-.1-.3-.3l-.1-1c0-.2.1-.3.3-.3l.9-.1c.2 0 .3.1.3.3l.1 1c-.1.1-.2.3-.3.3z"/><path class="st7" d="M149.3 205.3l-2.9.2c-.2 0-.4-.2-.3-.4l1.8-5.1 3.8-.2-1.8 5.2c-.1.2-.3.3-.6.3z"/><path id="XMLID_1940_" class="st0" d="M138.7 196.3s.4.7.9 1.6l.3.3c.1.1.2.2.5.2.8.2 1.6.4 2.5.5 3.3.7 6.7 1.5 6.7 1.5l-.4 2.3s-3.4-.4-6.8-.7c-.9-.1-1.7-.2-2.5-.3-.5-.1-1.2-.2-1.7-.5s-1-.6-1.3-1c-.2-.2-.4-.5-.4-.5-.1-.1-.2-.3-.3-.4-.2-.2-.3-.4-.4-.6-.2-.3-.3-.5-.3-.5l3.2-1.9z"/><g id="XMLID_42115_"><path id="XMLID_1936_" class="st1" d="M139.9 196.8l-2.8-4.4c-.8-1.2-2.4-1.6-3.6-.8-1.1.7-1.4 2.2-.7 3.3l3 4.5 4.1-2.6z"/></g><ellipse id="XMLID_1911_" transform="rotate(-31.98 149.85 201.071)" class="st0" cx="149.8" cy="201.1" rx="2" ry="2"/><ellipse id="XMLID_1913_" transform="rotate(-.769 156.173 200.318) scale(.99999)" class="st0" cx="156.2" cy="200.3" rx="2" ry="2"/><path class="st7" d="M147.1 173c-3.7.8-8.2-2.4-11-.3-.4.4-.4.8-.4 1.2v4.4l9.7-.1c2.3 0 4.2-1.8 4.2-4.1v-1.5c0-.4-.4-.7-.8-.4-.4.3-1.1.7-1.7.8z"/><path id="XMLID_991_" class="st7" d="M133 183h-1.4l-.1-6.3c0-1.7 1.4-3.2 3.1-3.2.8 0 1.5.7 1.5 1.5l.1 4.7c.1 1.7-1.4 3.2-3.2 3.3z"/><path class="st8" d="M83.5 163.4s1.4-.4 3.5-1.1c1.1-.3 2.3-.7 3.6-1.1.7-.2 1.3-.4 2-.6l.5-.2.3-.1h.2c-.3.1-.1 0-.2.1.1 0 .2-.1.2-.1h.1c.1 0 .2-.1.3-.1.3-.2.6-.5.8-.8.1-.1.3-.5.4-.8.2-.3.3-.6.5-.9l1.7-3.4c1-2 1.6-3.3 1.6-3.3.5-1 1.7-1.4 2.7-.9 1 .5 1.4 1.7 1 2.7 0 0-.6 1.3-1.5 3.4-.4 1-1 2.2-1.5 3.4-.1.3-.3.6-.4 1-.2.3-.2.6-.5 1.1-.5.9-1.2 1.8-2.1 2.4-.2.2-.4.3-.7.4-.1.1-.3.1-.4.2l-.3.1c-.4.1-.8.3-1.2.4-.7.2-1.4.5-2 .7-1.3.5-2.5.9-3.6 1.2-2.1.7-3.5 1.2-3.5 1.2-1.3.5-2.7-.2-3.2-1.5s.3-2.9 1.7-3.4c-.1.1 0 0 0 0z"/><path class="st0" d="M100.6 218.4l-9.2 1.9h-.1l.6 2.7h.1l9.2-1.9c.7-.2 1.2-.9 1.1-1.6-.3-.7-1-1.2-1.7-1.1z"/><path class="st9" d="M89.7 209.5l3.6 11.6"/><path id="XMLID_992_" class="st6" d="M85.3 148.6c0 1.3-1.1 2.4-2.4 2.4-1.3 0-2.4-1.1-2.4-2.4h4.8z"/><path id="XMLID_983_" class="st0" d="M82.8 161.9h-6.3l.1-6.3h6.2z"/><path class="st4" d="M73.5 188.9h8.9c2.3 0 4.1-1.8 4.1-4.1v-1.4H69.4v1.4c0 2.3 1.9 4.1 4.1 4.1z"/><path class="st2" d="M83.3 160.4zm-2.9-.7h-3.9c-4.9.7-6.2 4-6.2 7.7v16h16.3v-17.6c0-2.2-1.3-6.1-6.2-6.1z"/><g id="XMLID_656_"><g id="XMLID_658_"><path id="XMLID_660_" class="st0" d="M66.4 223.1h-3.7l-3.3-7.7 2.8-1.2 2.5 5.9h1.7c.8 0 1.5.7 1.5 1.5s-.6 1.5-1.5 1.5z"/></g></g><path class="st4" d="M94.4 217.4l-9.3-32-5.6 1.6L90 218.6z"/><path class="st9" d="M68 207.6l-6.5 8.8"/><path class="st4" d="M72.7 186.3s-.4 2-.9 5.1c-.2 1.5-.6 3.3-.8 5.2-.1 1-.3 1.9-.4 2.9v.4c0 .1 0 .1-.1.2v.1l-.1.2-.5.6c-1.2 1.7-2.4 3.4-3.5 4.9-.5.7-.8 1.1-4.5 6.2l4 2.8c3.7-4.9 4.1-5.4 4.5-6 1.2-1.5 2.5-3.1 3.8-4.7l.5-.6c.1-.1.2-.3.3-.5l.3-.6c.2-.4.4-.8.5-1.2l.1-.3.1-.3.1-.4c.2-1 .4-2 .5-2.9.3-1.9.6-3.7.9-5.2.5-3 .7-5.1.7-5.1l-5.5-.8z"/><path class="st10" d="M92.4 194.7c2.7-1 5.6-1.1 8.3-.2l1.1.3c3.8 1.2 7.9.9 11.4-1l9.5-5c1.5-.8 2.5-2.4 2.5-4 0-1.7-1-3.2-2.5-4l-9.6-5c-3.4-1.8-7.5-2.2-11.2-1l-1.3.4c-2.6.8-5.4.7-8-.2-4.2-1.6-11-3.7-16.4-3.7-15.6 0-36.7 8.4-37 8.4 0 0-4.9 1.9-7.2 1.9-1.1 0-2.5-.3-3.8-.6-.8-.2-1.4.8-.8 1.3 2.4 2.4 6.6 6 11.8 7.9.3 0 21.4 8.4 37 8.4 5.3 0 12-2.2 16.2-3.9z"/><path class="st11" d="M70.4 171.5l-1.7 3.5 1.6 5.5 3.3 7.7s1.8-1.1 1.7-3.7c0-.9-3.2-9-3.2-9l2.6-4.4c-1.4.2-2.8.3-4.3.4z"/><path class="st12" d="M78.6 194c11.2 0 18.4-3.4 19.7-4l7.2 1.8c1.2.3 2.5.1 3.4-.7l3.4-2.5c.2-.1.4-.2.7-.3l9.3-1.7c.8-.2 1.5-.9 1.5-1.7 0-.8-.6-1.6-1.5-1.7l-9.2-1.7c-.3-.1-.5-.2-.8-.3l-3-2.5c-1-.8-2.3-1.1-3.5-.8l-7.5 1.6c-1.3-.5-9.8-3.8-20.5-3.8-14.3 0-28.3 1.8-36.4 3.2-1.4.5-2.3.8-2.3.8s-2.2.9-4.4 1.4c2.9-.6 22.8-4.4 43.2-4.4 11.4 0 20.1 3.8 20.2 3.8l.2.1 7.9-1.7c.9-.2 1.9 0 2.6.6l3 2.5c.4.3.8.5 1.3.6l9.2 1.7c.3.1.6.3.6.7 0 .3-.2.6-.6.7l-9.3 1.7c-.4.1-.8.2-1.1.5l-3.4 2.5c-.7.5-1.6.7-2.5.5l-7.6-1.9-.2.1c-.1 0-7.6 4-19.4 4-23.2 0-44.1-5.1-44.3-5.2 1.1.7 2.2 1.3 3.4 1.8 6.9 1.4 23.2 4.3 40.7 4.3z"/><path class="st12" d="M75 175.8v-.3c.1-.5.3-1 .8-1.3.4-.3.9-.4 1.5-.4l5.5.7c1 .1 1.7.9 1.7 1.9v.3c-.1 1-1.1 1.8-2.2 1.6l-5.5-.7c-1.1 0-1.8-.8-1.8-1.8z"/><path class="st4" d="M75.7 175.6c.1-.7.7-1.1 1.4-1l5.5.7c.7.1 1.2.7 1.1 1.4-.1.7-.7 1.1-1.4 1l-5.5-.7c-.7-.1-1.2-.7-1.1-1.4z"/><path class="st12" d="M75 193.8c0-1 .7-1.8 1.7-1.9l5.5-.7c.5-.1 1 .1 1.5.4.4.3.7.8.8 1.3v.3c0 1-.7 1.8-1.7 1.9l-5.5.7c-1.1.1-2.1-.6-2.2-1.6-.1-.2-.1-.3-.1-.4z"/><path class="st4" d="M75.7 194c.1.7.7 1.1 1.4 1l5.5-.7c.7-.1 1.2-.7 1.1-1.4-.1-.7-.7-1.1-1.4-1l-5.5.7c-.7.1-1.2.7-1.1 1.4z"/><path class="st12" d="M90.1 188.1v-2.3c0-.8.7-1.5 1.5-1.5h1.2c.8 0 1.5.7 1.5 1.5v2.3c0 .8-.7 1.5-1.5 1.5h-1.2c-.8 0-1.5-.7-1.5-1.5zm3.4-2.3c0-.3-.3-.6-.6-.6h-1.2c-.3 0-.6.3-.6.6v2.3c0 .3.3.6.6.6h1.2c.3 0 .6-.3.6-.6v-2.3z"/><path class="st12" d="M90.1 183.7v-2.3c0-.8.7-1.5 1.5-1.5h1.2c.8 0 1.5.7 1.5 1.5v2.3c0 .8-.7 1.5-1.5 1.5h-1.2c-.8 0-1.5-.7-1.5-1.5zm3.4-2.3c0-.3-.3-.6-.6-.6h-1.2c-.3 0-.6.3-.6.6v2.3c0 .3.3.6.6.6h1.2c.3 0 .6-.3.6-.6v-2.3z"/><path class="st12" d="M86.7 188.6v-2.8c0-.8.7-1.5 1.5-1.5h1.2c.8 0 1.5.7 1.5 1.5v2.8c0 .8-.7 1.5-1.5 1.5h-1.2c-.8 0-1.5-.7-1.5-1.5zm3.4-2.8c0-.3-.3-.6-.6-.6h-1.2c-.3 0-.6.3-.6.6v2.8c0 .3.3.6.6.6h1.2c.3 0 .6-.3.6-.6v-2.8z"/><path class="st12" d="M86.7 183.7v-2.8c0-.8.7-1.5 1.5-1.5h1.2c.8 0 1.5.7 1.5 1.5v2.8c0 .8-.7 1.5-1.5 1.5h-1.2c-.8-.1-1.5-.7-1.5-1.5zm3.4-2.8c0-.3-.3-.6-.6-.6h-1.2c-.3 0-.6.3-.6.6v2.8c0 .3.3.6.6.6h1.2c.3 0 .6-.3.6-.6v-2.8z"/><path class="st12" d="M83.3 189.1v-3.3c0-.8.7-1.5 1.5-1.5H86c.8 0 1.5.7 1.5 1.5v3.3c0 .8-.7 1.5-1.5 1.5h-1.2c-.8 0-1.5-.7-1.5-1.5zm3.4-3.3c0-.3-.3-.6-.6-.6h-1.2c-.3 0-.6.3-.6.6v3.3c0 .3.3.6.6.6h1.2c.3 0 .6-.3.6-.6v-3.3z"/><path class="st12" d="M83.3 183.7v-3.3c0-.8.7-1.5 1.5-1.5H86c.8 0 1.5.7 1.5 1.5v3.3c0 .8-.7 1.5-1.5 1.5h-1.2c-.8-.1-1.5-.7-1.5-1.5zm3.4-3.3c0-.3-.3-.6-.6-.6h-1.2c-.3 0-.6.3-.6.6v3.3c0 .3.3.6.6.6h1.2c.3 0 .6-.3.6-.6v-3.3z"/><path class="st12" d="M79.9 189.5v-3.6c0-.8.7-1.5 1.5-1.5h1.2c.8 0 1.5.7 1.5 1.5v3.6c0 .8-.7 1.5-1.5 1.5h-1.2c-.8-.1-1.5-.7-1.5-1.5zm3.4-3.7c0-.3-.3-.6-.6-.6h-1.2c-.3 0-.6.3-.6.6v3.6c0 .3.3.6.6.6h1.2c.3 0 .6-.3.6-.6v-3.6z"/><path class="st12" d="M79.9 183.7V180c0-.8.7-1.5 1.5-1.5h1.2c.8 0 1.5.7 1.5 1.5v3.6c0 .8-.7 1.5-1.5 1.5h-1.2c-.8 0-1.5-.6-1.5-1.4zm3.4-3.7c0-.3-.3-.6-.6-.6h-1.2c-.3 0-.6.3-.6.6v3.6c0 .3.3.6.6.6h1.2c.3 0 .6-.3.6-.6V180zm-10.2 9.5v-3.6c0-.8.7-1.5 1.5-1.5h1.2c.8 0 1.5.7 1.5 1.5v3.6c0 .8-.7 1.5-1.5 1.5h-1.2c-.8-.1-1.5-.7-1.5-1.5zm3.4-3.7c0-.3-.3-.6-.6-.6h-1.2c-.3 0-.6.3-.6.6v3.6c0 .3.3.6.6.6h1.2c.3 0 .6-.3.6-.6v-3.6z"/><path class="st12" d="M73.1 183.7V180c0-.8.7-1.5 1.5-1.5h1.2c.8 0 1.5.7 1.5 1.5v3.6c0 .8-.7 1.5-1.5 1.5h-1.2c-.8 0-1.5-.6-1.5-1.4zm3.4-3.7c0-.3-.3-.6-.6-.6h-1.2c-.3 0-.6.3-.6.6v3.6c0 .3.3.6.6.6h1.2c.3 0 .6-.3.6-.6V180z"/><path class="st12" d="M69.7 188.7v-2.9c0-.8.7-1.5 1.5-1.5h1.2c.8 0 1.5.7 1.5 1.5v2.9c0 .8-.7 1.5-1.5 1.5h-1.2c-.8 0-1.5-.6-1.5-1.5zm3.4-2.9c0-.3-.3-.6-.6-.6h-1.2c-.3 0-.6.3-.6.6v2.9c0 .3.3.6.6.6h1.2c.3 0 .6-.3.6-.6v-2.9z"/><path class="st12" d="M69.7 183.7v-2.9c0-.8.7-1.5 1.5-1.5h1.2c.8 0 1.5.7 1.5 1.5v2.9c0 .8-.7 1.5-1.5 1.5h-1.2c-.8-.1-1.5-.7-1.5-1.5zm3.4-3c0-.3-.3-.6-.6-.6h-1.2c-.3 0-.6.3-.6.6v2.9c0 .3.3.6.6.6h1.2c.3 0 .6-.3.6-.6v-2.9z"/><path class="st12" d="M66.3 188.1v-2.3c0-.8.7-1.5 1.5-1.5H69c.8 0 1.5.7 1.5 1.5v2.3c0 .8-.7 1.5-1.5 1.5h-1.2c-.8 0-1.5-.7-1.5-1.5zm3.4-2.3c0-.3-.3-.6-.6-.6h-1.2c-.3 0-.6.3-.6.6v2.3c0 .3.3.6.6.6H69c.3 0 .6-.3.6-.6v-2.3z"/><path class="st12" d="M66.3 183.7v-2.3c0-.8.7-1.5 1.5-1.5H69c.8 0 1.5.7 1.5 1.5v2.3c0 .8-.7 1.5-1.5 1.5h-1.2c-.8 0-1.5-.7-1.5-1.5zm3.4-2.3c0-.3-.3-.6-.6-.6h-1.2c-.3 0-.6.3-.6.6v2.3c0 .3.3.6.6.6H69c.3 0 .6-.3.6-.6v-2.3z"/><path class="st12" d="M62.9 187.4v-1.6c0-.8.7-1.5 1.5-1.5h1.2c.8 0 1.5.7 1.5 1.5v1.6c0 .8-.7 1.5-1.5 1.5h-1.2c-.8 0-1.5-.7-1.5-1.5zm3.4-1.6c0-.3-.3-.6-.6-.6h-1.2c-.3 0-.6.3-.6.6v1.6c0 .3.3.6.6.6h1.2c.3 0 .6-.3.6-.6v-1.6z"/><path class="st12" d="M62.9 183.7v-1.6c0-.8.7-1.5 1.5-1.5h1.2c.8 0 1.5.7 1.5 1.5v1.6c0 .8-.7 1.5-1.5 1.5h-1.2c-.8 0-1.5-.7-1.5-1.5zm3.4-1.6c0-.3-.3-.6-.6-.6h-1.2c-.3 0-.6.3-.6.6v1.6c0 .3.3.6.6.6h1.2c.3 0 .6-.3.6-.6v-1.6z"/><path class="st12" d="M59.5 187.4v-1.6c0-.8.7-1.5 1.5-1.5h1.2c.8 0 1.5.7 1.5 1.5v1.6c0 .8-.7 1.5-1.5 1.5H61c-.8 0-1.5-.7-1.5-1.5zm3.4-1.6c0-.3-.3-.6-.6-.6H61c-.3 0-.6.3-.6.6v1.6c0 .3.3.6.6.6h1.2c.3 0 .6-.3.6-.6v-1.6z"/><path class="st12" d="M59.5 183.7v-1.6c0-.8.7-1.5 1.5-1.5h1.2c.8 0 1.5.7 1.5 1.5v1.6c0 .8-.7 1.5-1.5 1.5H61c-.8 0-1.5-.7-1.5-1.5zm3.4-1.6c0-.3-.3-.6-.6-.6H61c-.3 0-.6.3-.6.6v1.6c0 .3.3.6.6.6h1.2c.3 0 .6-.3.6-.6v-1.6z"/><path class="st12" d="M56.1 187.4v-1.6c0-.8.7-1.5 1.5-1.5h1.2c.8 0 1.5.7 1.5 1.5v1.6c0 .8-.7 1.5-1.5 1.5h-1.2c-.8 0-1.5-.7-1.5-1.5zm3.4-1.6c0-.3-.3-.6-.6-.6h-1.2c-.3 0-.6.3-.6.6v1.6c0 .3.3.6.6.6h1.2c.3 0 .6-.3.6-.6v-1.6z"/><path class="st12" d="M56.1 183.7v-1.6c0-.8.7-1.5 1.5-1.5h1.2c.8 0 1.5.7 1.5 1.5v1.6c0 .8-.7 1.5-1.5 1.5h-1.2c-.8 0-1.5-.7-1.5-1.5zm3.4-1.6c0-.3-.3-.6-.6-.6h-1.2c-.3 0-.6.3-.6.6v1.6c0 .3.3.6.6.6h1.2c.3 0 .6-.3.6-.6v-1.6z"/><path class="st12" d="M52.6 186.4v-.6c0-.8.7-1.5 1.5-1.5h1.2c.8 0 1.5.7 1.5 1.5v.6c0 .8-.7 1.5-1.5 1.5h-1.2c-.8 0-1.5-.7-1.5-1.5zm3.4-.6c0-.3-.3-.6-.6-.6h-1.2c-.3 0-.6.3-.6.6v.6c0 .3.3.6.6.6h1.2c.3 0 .6-.3.6-.6v-.6z"/><path class="st12" d="M52.6 183.7v-.6c0-.8.7-1.5 1.5-1.5h1.2c.8 0 1.5.7 1.5 1.5v.6c0 .8-.7 1.5-1.5 1.5h-1.2c-.8 0-1.5-.7-1.5-1.5zm3.4-.6c0-.3-.3-.6-.6-.6h-1.2c-.3 0-.6.3-.6.6v.6c0 .3.3.6.6.6h1.2c.3 0 .6-.3.6-.6v-.6zm20.5 6.8v-4.1c0-.8.7-1.5 1.5-1.5h1.2c.8 0 1.5.7 1.5 1.5v4.1c0 .8-.7 1.5-1.5 1.5H78c-.8 0-1.5-.7-1.5-1.5zm3.4-4.1c0-.3-.3-.6-.6-.6H78c-.3 0-.6.3-.6.6v4.1c0 .3.3.6.6.6h1.2c.3 0 .6-.3.6-.6v-4.1z"/><path class="st12" d="M76.5 183.7v-4.1c0-.8.7-1.5 1.5-1.5h1.2c.8 0 1.5.7 1.5 1.5v4.1c0 .8-.7 1.5-1.5 1.5H78c-.8-.1-1.5-.7-1.5-1.5zm3.4-4.1c0-.3-.3-.6-.6-.6H78c-.3 0-.6.3-.6.6v4.1c0 .3.3.6.6.6h1.2c.3 0 .6-.3.6-.6v-4.1zm-31.1 6v-1.7c0-.8.7-1.4 1.5-1.4H52c.8 0 1.5.6 1.5 1.4v1.7c0 .8-.7 1.4-1.5 1.4h-1.8c-.7 0-1.4-.6-1.4-1.4zm3.8-1.7c0-.3-.3-.6-.6-.6h-1.8c-.3 0-.6.3-.6.6v1.7c0 .3.3.6.6.6H52c.3 0 .6-.3.6-.6v-1.7zm40.9 2.1v-2.6c0-.8.7-1.5 1.5-1.5h1.7c.8 0 1.5.7 1.5 1.5v2.6c0 .8-.7 1.5-1.5 1.5H95c-.8 0-1.5-.6-1.5-1.5zm3.9-2.6c0-.3-.3-.6-.6-.6h-1.7c-.3 0-.6.3-.6.6v2.6c0 .3.3.6.6.6h1.7c.3 0 .6-.3.6-.6v-2.6z"/><path class="st12" d="M44.9 185.1v-.7c0-.8.7-1.4 1.5-1.4h1.8c.8 0 1.5.6 1.5 1.4v.7c0 .8-.7 1.4-1.5 1.4h-1.8c-.8 0-1.5-.6-1.5-1.4zm3.9-.7c0-.3-.3-.6-.6-.6h-1.8c-.3 0-.6.3-.6.6v.7c0 .3.3.6.6.6h1.8c.3 0 .6-.3.6-.6v-.7z"/><path class="st12" d="M41.1 184.7c0-.8.7-1.4 1.5-1.4h1.8c.8 0 1.5.6 1.5 1.4s-.7 1.4-1.5 1.4h-1.8c-.8.1-1.5-.6-1.5-1.4zm3.8 0c0-.3-.3-.6-.6-.6h-1.8c-.3 0-.6.3-.6.6s.3.6.6.6h1.8c.4 0 .6-.2.6-.6zm56.6 2.9v-5.2c0-.7.6-1.3 1.3-1.3.7 0 1.3.6 1.3 1.3v5.2c0 .7-.6 1.3-1.3 1.3-.8 0-1.3-.6-1.3-1.3zm1.7-5.2c0-.2-.2-.4-.4-.4s-.4.2-.4.4v5.2c0 .2.2.4.4.4s.4-.2.4-.4v-5.2z"/><path class="st12" d="M103.2 188.1v-6.2c0-.8.7-1.5 1.5-1.5s1.5.7 1.5 1.5v6.2c0 .8-.7 1.5-1.5 1.5-.9 0-1.5-.7-1.5-1.5zm2.1-6.2c0-.3-.3-.6-.6-.6s-.6.3-.6.6v6.2c0 .3.3.6.6.6s.6-.3.6-.6v-6.2z"/><path class="st12" d="M105.3 187.1V183c0-.8.7-1.5 1.6-1.5.9 0 1.6.7 1.6 1.5v4.1c0 .8-.7 1.5-1.6 1.5-.9.1-1.6-.6-1.6-1.5zm2.2-4c0-.4-.3-.7-.7-.7-.4 0-.7.3-.7.7v4.1c0 .4.3.7.7.7.4 0 .7-.3.7-.7v-4.1z"/><path class="st12" d="M107.5 185.7v-1.3c0-.7.6-1.4 1.4-1.4h1.6c.8 0 1.4.6 1.4 1.4v1.3c0 .7-.6 1.4-1.4 1.4h-1.6c-.8-.1-1.4-.7-1.4-1.4zm3.6-1.3c0-.3-.2-.5-.5-.5H109c-.3 0-.5.2-.5.5v1.3c0 .3.2.5.5.5h1.6c.3 0 .5-.2.5-.5v-1.3z"/><path class="st11" d="M122.7 180.8l-9.6-5c-3.4-1.8-7.5-2.2-11.2-1l-1.3.4c-2.6.8-5.4.7-8-.2-.4-.2-.8-.3-1.3-.5-.2-.1-1.1-.5-1.1-.9s.4-.9.5-.9c.4-.3.8-.6 1.2-.8l.6-.3c.2-.1.4-.2.6-.2.4-.1.7-.2.9-.3.2-.1.4-.1.4-.1l.2-.1c1.3-.4 1.8-1.5 1.7-2.6-.2-1.2-1.2-1.6-2.2-1.5h-.5c-.3 0-.8.1-1.4.2-.3 0-.6.1-.9.2-.3.1-.7.2-1 .3-.7.2-1.4.6-2.1 1-1.4.8-2.5 1.8-3.3 2.7-.4.4-.7.8-.9 1.1-2.6-.6-5.4-1.1-7.8-1.1-2.5 0-5.2.2-7.9.6-.2 0-.6 0-.7-.2-.1-.1.1-.3.1-.4.1-.1.3-.2.4-.3.2-.2.5-.3.7-.5.2-.2.5-.3.7-.4.4-.2.8-.4 1.1-.5.3-.1.4-.2.4-.2l.3-.1c1.6-.7 2.1-2.2 1.7-3.5-.4-1.4-1.8-1.8-3-1.6 0 0-.2 0-.6.1-.4.1-1 .2-1.7.4-.3.1-.7.2-1.1.4-.4.2-.8.3-1.2.5-.8.4-1.7.9-2.4 1.5-1.6 1.2-2.9 2.6-3.7 3.9-.4.6-.7 1.1-1 1.5-.1.2-.2.4-.3.5-.1.1-.1.2-.1.2-.1.1-.1.2-.1.4-2.4.6-4.7 1.2-6.8 1.8 4.4-.6 18.7-2.3 26.2-2.3 9 0 16.9 4.3 20.1 4.3 3.3 0 4.6-1.3 9.8-1.3 5.2 0 16.7 5.4 16.7 5.4-.3 0-.7-.3-1.1-.6z"/><path class="st13" d="M114.8 179.9v-.2c.1-.4.5-.6.9-.4l2.6.9c.4.1.6.5.4.9-.1.4-.5.6-.9.4l-2.6-.9c-.2-.1-.4-.4-.4-.7zm4.4 1.4v-.2c.1-.4.5-.6.9-.5l.6.2c.4.1.6.5.5.9-.1.4-.5.6-.9.5l-.6-.2c-.3-.1-.5-.4-.5-.7zM64 178.7c0-.4.3-.7.7-.7l4-.3c.4 0 .7.3.8.6 0 .4-.3.7-.7.7l-4 .3c-.5.1-.8-.2-.8-.6zm-4.5.3c0-.4.3-.7.7-.7l1.9-.2c.4 0 .8.2.8.6 0 .4-.3.7-.7.8l-1.9.2c-.4 0-.7-.3-.8-.7z"/><path class="st14" d="M86.8 170.8c0-.2.1-.3.2-.4 1.4-1.4 3.5-2.2 3.6-2.2.3-.1.7 0 .9.4.1.3 0 .7-.4.8 0 0-1.9.7-3.1 1.9-.3.3-.7.3-1 0-.1-.2-.2-.4-.2-.5z"/><path class="st11" d="M107.2 193.5c-5.2 0-6.5-1.3-9.8-1.3-3.3 0-11.1 4.3-20.1 4.3-7.4 0-21.3-1.7-26-2.3 2 .6 4.3 1.2 6.5 1.8 0 .1.1.2.1.3 0 0 0 .1.1.2.1.2.2.3.3.5.2.4.5.9 1 1.5.8 1.2 2.1 2.7 3.7 3.9.8.6 1.6 1.1 2.4 1.5.4.2.8.4 1.2.5.4.2.8.3 1.1.4.7.2 1.3.3 1.7.4.4.1.6.1.6.1 1.2.2 2.6-.2 3-1.6.4-1.3-.1-2.8-1.7-3.5l-.3-.1-.4-.2c-.3-.1-.7-.2-1.1-.5-.2-.1-.5-.2-.7-.4-.2-.1-.4-.2-.6-.4-.1-.1-.4-.5-.3-.6.2-.3.8-.3.8-.3h.1c2.5.3 5 .5 7.3.5 2.5 0 5.3-.5 8-1.2.2.2.4.5.7.8.8.9 2 1.9 3.3 2.7.7.4 1.4.7 2.1 1 .3.1.7.2 1 .3.3.1.6.2.9.2.6.1 1 .1 1.4.2h.5c1 .1 2-.4 2.2-1.5.2-1.1-.3-2.2-1.7-2.6l-.2-.1s-.1 0-.4-.1c-.2-.1-.6-.1-.9-.3-.2-.1-.4-.1-.6-.2l-.6-.3c-.3-.2-.6-.3-.8-.5-.2-.2-.7-.7-.6-1.1 0-.4.9-.8.9-.8.4-.1.7-.3 1.1-.4 2.7-1 5.6-1.1 8.3-.2l1.1.3c3.8 1.2 7.9.9 11.4-1l9.5-5c.4-.2.8-.5 1.2-.9 0 .5-11.5 6-16.7 6z"/><g id="XMLID_994_"><path id="XMLID_972_" class="st0" d="M71.8 188.5c-.9-.1-1.6-.7-1.9-1.6L66 176.7c-.2-.6-.2-1.3.1-1.9l4.6-9.8c.6-1.2 2.1-1.8 3.3-1.2 1.2.6 1.8 2.1 1.2 3.3L71 176l2.9 9.2c.5 1.3.2 2.7-1.1 3.2-.5.1-.6.1-1 .1z"/></g><path class="st15" d="M73.3 172l2.5-5.3c.6-1.4.1-3-1.3-3.6-1.4-.6-3-.1-3.6 1.3l-2.8 5.9 5.2 1.7z"/><path class="st16" d="M91.6 223.3l10.8-2.3m-3.7-2.4l.7 3m-40-6.2l3.3 7.7h4.8m-2.6-3.3l-2 3.1"/><path class="st0" d="M76.5 159.7s.6 2.7 3.3 2.7c2.7 0 3-2.2 3-2.2l-.9-.8-5.2-.1-.2.4z"/><g id="XMLID_2036_"><path id="XMLID_2037_" class="st0" d="M84.4 137.8c-1.3.1-2.7-.1-4-.1-.2 0-.4-.1-.4-.3-1 0-2 .1-2.9.2-.2 0-.4-.1-.4-.3h-.4c-2.5 1.3-4.2 3.9-4.2 6.9v6.9c0 4.3 3.5 7.8 7.8 7.8s7.8-3.5 7.8-7.8v-6.9c-.1-2.7-1.3-5-3.3-6.4z"/></g><path class="st17" d="M82.2 145.6h-9v1.1h3.6v2.1c0 .7.6 1.3 1.3 1.3h3.6c.6 0 1.1-.4 1.2-1l.5-1.9v-.5h.4v.5l.5 1.9c.1.6.6 1 1.2 1h2V149h-2c-.1 0-.2-.1-.2-.2l-.5-1.9v-.2s.1-.1.2-.1h2.5v-1.1h-5.3zm-.2 3.2c0 .1-.1.2-.2.2h-3.6c-.1 0-.2-.1-.2-.2v-2.1h4.3c.1 0 .1.1.2.1 0 0 .1.1 0 .2l-.5 1.8z"/><g id="XMLID_2032_"><g id="XMLID_2033_"><g id="XMLID_2034_"><path id="XMLID_2035_" class="st6" d="M85.9 150.2c0 1.4-1.2 2.6-2.6 2.6s-2.6-1.2-2.6-2.6h5.2z"/></g></g></g><path class="st4" d="M89.3 138c0-1.3-1-2.4-2.3-2.6v2.5c-2.7 0-5.9-1.4-10.8-1.4-2.2 0-4.3 1.9-4.3 4.3v2.9h14c1.9 0 3.4-1.5 3.4-3.4V138z"/><g id="XMLID_2019_"><path id="XMLID_2020_" class="st4" d="M73.5 150.8H72v-7.2h2.7c.7 0 1.2.5 1.2 1.2v3.6c0 1.3-1.1 2.4-2.4 2.4z"/></g><path class="st4" d="M87 137.9s-.1-2.4-1.6-2.5v2.9l1.3.3.3-.7zm-8.8 7.7h4.1c.5 0 .8.5.7.9l-.5 1.9c-.1.3-.4.6-.7.6h-3.6c-.4 0-.7-.3-.7-.7v-1.9c-.1-.4.2-.8.7-.8z"/><path class="st18" d="M78.2 148.5l3-2.7h1.5l-3.2 2.7-1.3.2z"/><path class="st4" d="M88 145.6h-2.9c-.5 0-.8.5-.7.9l.5 1.9c.1.3.4.6.7.6H88c.4 0 .7-.3.7-.7v-1.9c.1-.4-.3-.8-.7-.8z"/><path class="st18" d="M84.8 148.5l3-2.7h1.5l-3.2 2.7-1.3.2z"/><path class="st2" d="M89.8 145.1H73.2v1.1h3.6v2.1c0 .7.6 1.3 1.3 1.3h3.6c.6 0 1.1-.4 1.2-1l.5-1.9v-.5h.4v.5l.5 1.9c.1.6.6 1 1.2 1H88c.7 0 1.3-.6 1.3-1.3v-2.1h.5v-1.1zm-7.4 1.1s.1.1 0 .2l-.5 1.9c0 .1-.1.2-.2.2h-3.6c-.1 0-.2-.1-.2-.2v-2.1h4.5zm5.8 2.1c0 .1-.1.2-.2.2h-2.4c-.1 0-.2-.1-.2-.2l-.5-1.9v-.2s.1-.1.2-.1h3.1v2.2z"/><path class="st19" d="M94.8 217.4l-5.1 1.6-.8-2.5 5.1-1.7z"/><path transform="rotate(-18.01 91.756 216.953)" class="st4" d="M91.5 215.5h.6v2.8h-.6z"/><path transform="rotate(-18.01 90.795 217.265)" class="st4" d="M90.5 215.8h.6v2.8h-.6z"/><path class="st19" d="M66 215.1l-4.4-3.1 1.6-2.2 4.4 3.1z"/><path transform="rotate(35.105 64.576 212.388)" class="st4" d="M64.3 211h.6v2.8h-.6z"/><path transform="rotate(35.105 63.749 211.807)" class="st4" d="M63.4 210.4h.6v2.8h-.6z"/></svg>