<svg id="RECHTS" xmlns="http://www.w3.org/2000/svg" width="400" height="232"><style>.st0{fill:#85af05}.st1{fill:#53241b}.st2{fill:#c0d219}.st3{fill:#acc700}.st4{fill:#fdcc2e}.st5{fill:#ffb70a}.st6{fill:#694039}.st7{fill:#6dcbf7}.st8{fill:#5abbf7}.st9{fill:#00a8e8}.st10{fill:#fff}.st11{fill:#f97d00}.st12{fill:#f7a100}.st13{fill:#e6f2f7}.st14{fill:#00589e}.st15{fill:#ff8e2f}.st16{fill:#0094de}</style><path class="st0" d="M261.4 208.1v5.7h61.5v-.2c0-10.7-9-19.4-20.2-19.4-2.6 0-5.2.5-7.5 1.4.1-.6.1-1.2.1-1.8 0-10.7-9-19.4-20.2-19.4s-20.2 8.7-20.2 19.4c0 5.7 2.5 10.7 6.5 14.3z" id="XMLID_14_"/><g id="XMLID_2_"><g id="XMLID_7_"><path class="st1" d="M293.9 167h4.4v45.4h-4.4z" id="XMLID_13_"/></g><path class="st2" d="M272.4 146.1c2.7-4.3 3.6-9.4 2.2-14.3-.5-1.9-.8-3.9-.8-6 0-4.5 1.3-8.6 3.6-12.1 2.3-3.6 2.9-7.9 1.9-12-.3-1.3-.5-2.7-.5-4.2 0-9.6 8.2-17.5 17.8-17.2 9.3.3 16.7 7.9 16.7 17.2 0 1.4-.2 2.8-.5 4.2-1 4.1-.4 8.5 1.9 12s3.6 7.6 3.6 12.1c0 2.1-.3 4.1-.8 6-1.3 4.8-.6 9.9 2.1 14.1 3.1 4.7 4.7 10.5 4.4 16.6-.8 14.7-13.1 26.4-27.8 26.5-15.5.1-28.1-12.5-28.1-27.9 0-5.5 1.6-10.7 4.3-15z" id="XMLID_40_"/><path class="st3" d="M319.3 145.6c-2.8-4.2-3.1-9.4-1.8-14.2.5-1.8.7-3.6.7-5.6 0-4.3-1.2-8.3-3.3-11.7-2.3-3.7-3.3-8-2.2-12.2.4-1.4.6-2.9.6-4.4 0-2.1-.4-4.1-1.1-5.9h-3.7c-6.9 0-12.5 5.6-12.5 12.5v52.7c0 10.3-8.3 18.6-18.6 18.6h-5.3c5.4 8.9 15.6 14.6 27 13.4 12.4-1.3 22.6-11.1 24.5-23.4 1.2-7.3-.6-14.2-4.3-19.8z"/></g><path class="st3" d="M305.1 213.6c-.9-6.9-6.8-12.2-13.9-12.2-.8 0-1.6.1-2.4.2-2.4-5.2-7.7-8.9-13.8-8.9-7.8 0-14.1 5.8-15.1 13.3h20.9c-1.9 2.1-3.1 4.7-3.5 7.6h27.8z"/><g id="XMLID_201_"><path class="st4" d="M284.3 145.7l-47.8-45.5-47.9 45.5v68h95.7z" id="XMLID_220_"/><path class="st5" d="M284.3 149.6l-.1 5.3-47.8-45.3-36.7 34.1-.9-6.8 37.7-33.9z" id="XMLID_219_"/><path class="st5" d="M204.3 130.8l-6.2 5.7-.3.2-9.2 9v68h9.3l6.4-.1z"/><g id="XMLID_217_"><path transform="rotate(-180 236.37 182.875)" class="st1" d="M200.9 152h71v61.7h-71z" id="XMLID_218_"/></g><g id="XMLID_211_"><path class="st6" d="M238.6 213.7c-3.9 0-7.2-3.2-7.2-7.2 0-3.9 3.2-7.2 7.2-7.2 3.9 0 7.2 3.2 7.2 7.2-.1 4-3.3 7.2-7.2 7.2zm0-12.1c-2.8 0-5 2.3-5 5 0 2.8 2.3 5 5 5s5-2.3 5-5c0-2.8-2.3-5-5-5z" id="XMLID_216_"/><path class="st6" d="M262.5 213.7c-3.9 0-7.2-3.2-7.2-7.2 0-3.9 3.2-7.2 7.2-7.2 3.9 0 7.2 3.2 7.2 7.2s-3.2 7.2-7.2 7.2zm0-12.1c-2.8 0-5 2.3-5 5 0 2.8 2.3 5 5 5 2.8 0 5-2.3 5-5 0-2.8-2.2-5-5-5z" id="XMLID_215_"/><path class="st6" d="M237.9 208c-.4 0-.8-.4-.8-.8s.3-.8.7-.8c.2 0 2.8-.8 4.6-11.4l.6-2.7c.1-1.1 1-3.1 4.2-3.1h3.3c.4 0 .8.4.8.8s-.4.8-.8.8h-3.3c-2.4 0-2.6 1.5-2.6 1.6v.1l-.6 2.7c-2 12.2-5.4 12.8-6.1 12.8z" id="XMLID_214_"/><path class="st6" d="M262.5 208h-10.3c-.3 0-.5-.1-.6-.3l-8.9-12.1c-.3-.4-.2-.9.2-1.1.4-.3.9-.2 1.1.2l8 10.9 2.1-9.7c.1-.3.3-.6.6-.6.3-.1.6.1.8.3l7.7 11.2c.2.2.2.6 0 .8-.1.3-.4.4-.7.4zm-9.2-1.5h7.6l-5.8-8.4-1.8 8.4z" id="XMLID_213_"/><path class="st6" d="M257.6 196.5h-4.3c-.9 0-1.6-.7-1.6-1.6 0-.9.7-1.6 1.6-1.6h4.3c.9 0 1.6.7 1.6 1.6-.1.9-.8 1.6-1.6 1.6z" id="XMLID_212_"/></g><g id="XMLID_207_"><path transform="rotate(-180 236.37 170.628)" class="st7" d="M200.9 151.4h71v38.4h-71z" id="XMLID_210_"/><path transform="rotate(-180 236.37 154.187)" class="st8" d="M200.9 151.4h71v5.5h-71z" id="XMLID_209_"/><g id="XMLID_208_"><path class="st9" d="M239.2 184.8h-5.6"/><path class="st1" d="M239.2 186h-5.6c-.6 0-1.1-.5-1.1-1.1 0-.6.5-1.1 1.1-1.1h5.6c.6 0 1.1.5 1.1 1.1 0 .6-.5 1.1-1.1 1.1z"/></g></g><path class="st10" d="M270 213.7v-59.8h-65.7v59.8h-3.7v-63.5h73.1v63.5z"/><g id="XMLID_203_"><path class="st5" d="M249.5 143.6h5.2c.4 0 .7-.3.7-.7v-1.5c0-.4-.3-.7-.7-.7h-5.2c-.4 0-.7.3-.7.7v1.5c-.1.3.3.7.7.7z" id="XMLID_206_"/><path class="st5" d="M245 139.2h5.2c.4 0 .7-.3.7-.7V137c0-.4-.3-.7-.7-.7H245c-.4 0-.7.3-.7.7v1.5c0 .4.3.7.7.7z" id="XMLID_205_"/><path class="st5" d="M241.4 143.6h4.6c.5 0 .8-.4.8-.8v-1.4c0-.5-.4-.8-.8-.8h-4.6c-.5 0-.8.4-.8.8v1.4c0 .4.4.8.8.8z" id="XMLID_204_"/></g><path class="st11" d="M284.3 149.6l-47.8-45.5-47.9 45.5-3.9-4 51.8-49.3 51.7 49.3z" id="XMLID_202_"/></g><g id="XMLID_196_"><g id="XMLID_199_"><path class="st1" d="M28.4 185.7h3.3V213h-3.3z" id="XMLID_200_"/></g><path class="st3" d="M28.1 187.2h2.5c11 0 19.9-8.9 19.9-19.9v-42.2c0-11-8.9-19.9-19.9-19.9h-2.5c-11 0-19.9 8.9-19.9 19.9v42.2c0 11 8.9 19.9 19.9 19.9z" id="XMLID_198_"/><path class="st2" d="M29.3 105.2c9.8 0 18 6.7 20.4 15.7-1.8-4.9-6.5-8.3-12-8.3-7.1 0-12.8 5.7-12.8 12.8v32.2c0 7.1-5.8 12.8-12.8 12.8-1.2 0-2.4-.2-3.5-.5-.2-1.3-.4-2.5-.4-3.9v-39.7c0-11.7 9.4-21.1 21.1-21.1z" id="XMLID_197_"/></g><path class="st4" d="M152.4 38.3h7.1v22.6h-7.1z"/><path class="st11" d="M159.9 36.5H152c-.4 0-.7.3-.7.7v1c0 .4.3.7.7.7h7.9c.4 0 .7-.3.7-.7v-1c0-.4-.3-.7-.7-.7z"/><path class="st0" d="M66.4 213.8v-3.1h-5.5c1.5-2 2.4-4.5 2.4-7.3 0-6.7-5.5-12.2-12.2-12.2S39 196.7 39 203.4c0 .8.1 1.6.2 2.3-1-.4-2-.6-3.2-.6-4.8 0-8.6 3.9-8.6 8.6h39z"/><path class="st0" d="M32.5 213.8c-.9-2.7-3.5-4.7-6.5-4.7s-5.6 2-6.5 4.7h13z"/><g id="XMLID_192_"><path class="st4" d="M60.6 36.3h39.7v42.2H60.6z" id="XMLID_195_"/><path class="st7" d="M105.9 46.6H54.1c-.5 0-1-.4-1-1V34.8c0-.6.5-1.1 1.1-1.1h51.6v12.9z" id="XMLID_194_"/><path class="st9" d="M105.9 38.3H53.1v-3.8c0-.5.4-.8.8-.8h51.9v4.6z" id="XMLID_193_"/></g><g id="XMLID_190_"><path class="st4" d="M37.9 125.6l78.7-112.2 78.6 112.2z" id="XMLID_191_"/></g><path class="st10" d="M192.8 125.4L116.6 20.1l-75 104.8-4.9-3.6L116.6 9.6l81.1 112.2z"/><path class="st11" d="M35.4 124.9l-5-3.6L114.7 3.2c.9-1.3 2.8-1.3 3.7 0l84.5 117-5 3.6-81.3-112.7-81.2 113.8z"/><path class="st4" d="M44.6 120.3h143.9v93.4H44.6z" id="XMLID_189_"/><path class="st5" d="M44.6 127.5h5.2l-5.2 4.6z" id="XMLID_188_"/><path class="st10" d="M28.2 119.6h21.5v7.8H28.2z" id="XMLID_187_"/><path class="st10" d="M204.9 126.3v-6.7h-21.5v7.9h20.4z"/><path class="st5" d="M188.5 127.5h-5.1l5.1 4.6z" id="XMLID_185_"/><g id="XMLID_176_"><path class="st11" d="M150.9 122.1H82.3c-.6 0-1-.5-1-1 0-.6.5-1 1-1h68.5c.6 0 1 .5 1 1 .1.6-.4 1-.9 1z" id="XMLID_184_"/><path class="st5" d="M150.8 122.1H82.4v1.2c0 1.2 1 2.2 2.2 2.2h64c1.2 0 2.2-1 2.2-2.2v-1.2z" id="XMLID_183_"/><path class="st1" d="M84.1 83.1h65v35.5h-65z"/><path class="st6" d="M144.3 83.9l-33.9-.3-24.6 25.5v7.9H112z" id="XMLID_182_"/><path class="st1" d="M100.8 109.3h-3.2c0-.7-.2-1.4-.6-1.9l.1-1.9-1.5.8c-.4-.2-.9-.3-1.3-.3-.5 0-.9.1-1.4.3l-1.5-.8.1 2c-.4.5-.6 1.2-.6 1.9v7.4h14.7v-2.7c-.1-2.7-2.2-4.8-4.8-4.8z" id="XMLID_181_"/><path class="st10" d="M150.7 120.1H82.5V81.5h68.2v38.6zm-65-3.1h61.8V84.7H85.7V117z"/><g id="XMLID_178_"><path class="st10" d="M99.7 83.1h2.1v34.3h-2.1z" id="XMLID_180_"/><path class="st10" d="M131.3 83.1h2.1v34.3h-2.1z" id="XMLID_179_"/></g><path class="st12" d="M126 110.3l1.1-3.5h-4.4l1.1 3.5c-1.4.5-2.4 1.7-2.4 3.3 0 1.9 1.5 3.5 3.5 3.5 1.9 0 3.5-1.5 3.5-3.5 0-1.6-1-2.9-2.4-3.3z" id="XMLID_177_"/></g><path class="st12" d="M120.7 200.8h55.2v13h-55.2z" id="XMLID_175_"/><path class="st10" d="M118.8 198.6h58.9v4.2h-58.9z" id="XMLID_174_"/><path class="st1" d="M120.7 160.3h55.2v38.3h-55.2z" id="XMLID_173_"/><g id="XMLID_170_"><path class="st6" d="M140.5 160.3s.9 11.5-5.9 21.3l.1 17h-14v-38.3h19.8z" id="XMLID_172_"/><path class="st6" d="M156 160.3s-.9 11.5 5.9 21.3l-.3 17h14.3v-38.3H156z" id="XMLID_171_"/></g><path class="st10" d="M127.3 158.1h2.6v42.7h-2.6z" id="XMLID_169_"/><path class="st10" d="M166.5 158.1h2.6v42.7h-2.6z" id="XMLID_168_"/><path class="st10" d="M118.8 156.3h58.9v4.2h-58.9z" id="XMLID_166_"/><g id="XMLID_157_"><path class="st10" d="M145.6 188.2v-10.9h.5v10.8l-.5.1z"/><path class="st10" d="M145.9 188.1l-4.2-7.5.4-.2 3.7 6.4 1.3-3.5.5.2z" id="XMLID_165_"/><circle class="st4" cx="141.9" cy="180.5" r="1.1" id="XMLID_164_"/><circle class="st4" cx="147.4" cy="183.6" r="1.1" id="XMLID_163_"/><circle class="st4" cx="145.9" cy="177.3" r="1.1" id="XMLID_162_"/><path class="st7" d="M144.3 189.8v-3.1h3v3.1c0 .4.3.7.7.7.4 0 .7.3.7.7v7.5H143v-7.5c0-.4.3-.7.7-.7.3 0 .6-.3.6-.7z" id="XMLID_159_"/><path class="st9" d="M151.2 198.6h-3c-1.1-.5-1.8-1.7-1.8-3 0-1.2.6-2.2 1.6-2.8.2-.1.4-.4.4-.7v-3h2.8v3c0 .3.1.5.4.7 1 .6 1.6 1.7 1.6 2.9-.1 1.2-.9 2.3-2 2.9z" id="XMLID_158_"/></g><path transform="rotate(-90 148.186 167.872)" class="st10" d="M146.9 140.3h2.6v55.2h-2.6z" id="XMLID_156_"/><path class="st11" d="M116.9 150h62.4v6.3h-62.4z" id="XMLID_167_"/><g id="XMLID_148_"><g id="XMLID_151_"><path class="st10" d="M125.6 59.5h-18v-18h18v18zm-14.8-3.1h11.6V44.7h-11.6v11.7z" id="XMLID_153_"/><path class="st1" d="M109.8 43.7h13.7v13.7h-13.7z" id="XMLID_152_"/></g><path class="st11" d="M107.5 59.4h18.1v1.7h-18.1z" id="XMLID_150_"/><path class="st5" d="M125.6 61h-18.1v1.2c0 1.2 1 2.2 2.2 2.2h13.7c1.2 0 2.2-1 2.2-2.2V61z" id="XMLID_149_"/></g><g id="XMLID_144_"><path class="st5" d="M77.2 141.7h-5.7c-.5 0-.9-.4-.9-.9v-1.6c0-.5.4-.9.9-.9h5.7c.5 0 .9.4.9.9v1.6c.1.5-.3.9-.9.9z" id="XMLID_147_"/><path class="st5" d="M81.8 137H76c-.5 0-.9-.4-.9-.9v-1.6c0-.5.4-.9.9-.9h5.7c.5 0 .9.4.9.9v1.6c.1.5-.3.9-.8.9z" id="XMLID_146_"/><path class="st5" d="M85.5 141.7h-5.1c-.5 0-.9-.4-.9-.9v-1.6c0-.5.4-.9.9-.9h5.1c.5 0 .9.4.9.9v1.6c0 .5-.4.9-.9.9z" id="XMLID_145_"/></g><path class="st5" d="M128.2 133.6h5.7c.5 0 .9.4.9.9v1.6c0 .5-.4.9-.9.9h-5.7c-.5 0-.9-.4-.9-.9v-1.6c-.1-.5.4-.9.9-.9z" id="XMLID_143_"/><path class="st12" d="M48.7 203.2h-4v3.4h4c.5 0 .9-.4.9-.9v-1.6c0-.5-.4-.9-.9-.9z"/><path class="st5" d="M132.3 138.2h5.7c.5 0 .9.4.9.9v1.6c0 .5-.4.9-.9.9h-5.7c-.5 0-.9-.4-.9-.9v-1.6c0-.4.4-.9.9-.9z" id="XMLID_142_"/><g id="XMLID_139_"><path class="st5" d="M133.4 64.6h5.7c.5 0 .9.4.9.9v1.6c0 .5-.4.9-.9.9h-5.7c-.5 0-.9-.4-.9-.9v-1.6c0-.5.4-.9.9-.9z" id="XMLID_141_"/><path class="st5" d="M129.3 69.3h5.7c.5 0 .9.4.9.9v1.6c0 .5-.4.9-.9.9h-5.7c-.5 0-.9-.4-.9-.9v-1.6c0-.5.4-.9.9-.9z" id="XMLID_140_"/></g><g id="XMLID_137_"><path class="st5" d="M163.3 109.3h5.7c.5 0 .9.4.9.9v1.6c0 .5-.4.9-.9.9h-5.7c-.5 0-.9-.4-.9-.9v-1.6c0-.5.4-.9.9-.9z" id="XMLID_138_"/></g><g id="XMLID_129_"><path class="st10" d="M103.6 169.4c0-10.7-8.7-19.3-19.3-19.3S65 158.8 65 169.4v19.3h38.7v-19.3z" id="XMLID_136_"/><g id="XMLID_131_"><g id="XMLID_133_"><path class="st9" d="M98.1 213.8v-43.6c0-7.6-6.2-13.8-13.8-13.8s-13.8 6.2-13.8 13.8v43.6"/><path class="st10" d="M99.7 213.8h-3.2v-43.6c0-6.7-5.5-12.2-12.2-12.2-6.7 0-12.2 5.5-12.2 12.2v43.6h-3.2v-43.6c0-8.5 6.9-15.4 15.4-15.4s15.4 6.9 15.4 15.4v43.6z"/></g></g><path class="st13" d="M67.3 210.4h34.5v4.5H67.3z" id="XMLID_130_"/><path class="st7" d="M85.9 171.5v8.1h-3.2v-8.1h3.2m2.1-2.2h-7.5v12.3H88v-12.3z" id="XMLID_132_"/></g><circle class="st4" cx="92.7" cy="186.6" r="1.8" id="XMLID_128_"/><g id="XMLID_1_"><path class="st13" d="M54.7 222.2h8.7v-19.8c0-2.4-1.9-4.3-4.3-4.3s-4.3 1.9-4.3 4.3v19.8z" id="XMLID_127_"/><path class="st13" d="M25.9 222.2h8.7v-19.8c0-2.4-1.9-4.3-4.3-4.3S26 200 26 202.4v19.8z" id="XMLID_126_"/><path class="st13" d="M30.2 207.5h28.9v2H30.2z" id="XMLID_125_"/></g><path class="st12" d="M364 214.1l-11.5-40.9-11.6 40.9h-3.1l13.1-46.7c.2-.6.7-1.1 1.4-1.1s1.3.4 1.5 1l13.3 46.8H364z"/><path class="st12" d="M345.3 193.5h15v3h-15z"/><path class="st1" d="M340.3 168.1h1v36.6h-1zm-8.8 0h1v36.6h-1z"/><path transform="rotate(-180 334.958 205.274)" class="st14" d="M329.6 204.1h10.8v2.2h-10.8z"/><path class="st9" d="M334.8 206.4h10.3c.6 0 1.1-.5 1.1-1.1 0-.6-.5-1.1-1.1-1.1h-10.3v2.2z"/><path class="st4" d="M318.4 169.2h34c.8 0 1.5-.7 1.5-1.5s-.7-1.5-1.5-1.5h-34c-.8 0-1.5.7-1.5 1.5s.6 1.5 1.5 1.5zm-7.4 24.3h15.2v3H311z"/><path class="st4" d="M329.8 214.1l-11.5-40.9-11.6 40.9h-3.1l13.1-46.7c.2-.6.7-1.1 1.4-1.1s1.3.4 1.5 1l13.3 46.8h-3.1zm37.1-5.8l1.4-1.9c.4-.6 1-1 1.7-1h.7c1.4 0 2.4 1.4 1.9 2.7l-1.1 3.3c-.3 1-1.3 1.6-2.3 1.3-.6-.2-1.1-.6-1.3-1.1l-.9-1.9c-.2-.6-.4-.9-.1-1.4z"/><path class="st4" d="M358.4 208.7h10.4v2.3h-10.4z"/><path class="st4" d="M353.6 209.1c.3-.3.8-.4 1.2-.3h.1c1.1.3 1.1 1.5 1.2 2.4.2 1.5 1.6 1.9 3.3 1.9v-.8s.8-3.4.8-3.5c0-.3 0-.5-.1-.7-.3-2-1.5-5.9-3.6-8.2-1.6-1.8-4.5-1.3-5.5.9l-2.9 6.4c-.5 1.2-.1 2.6 1 3.3 1 .6 2.3.5 3.2-.3l1.3-1.1z"/><path class="st1" d="M367.9 209.3h-8c-.4 0-.6-.3-.6-.6 0-.4.3-.6.6-.6h8c.4 0 .6.3.6.6.1.3-.2.6-.6.6z"/><path class="st15" d="M361.5 217c-.2 0-.3-.1-.4-.2-.1-.2-.1-.5.2-.6l4.4-2.7c.2-.1.5-.1.6.2.1.2.1.5-.2.6l-4.4 2.7h-.2zm0-2.8c-.2 0-.3-.1-.4-.2-.1-.2-.1-.5.2-.6l4.4-2.7c.2-.1.5-.1.6.2.1.2.1.5-.2.6l-4.4 2.7h-.2zm0 5.6c-.2 0-.3-.1-.4-.2-.1-.2-.1-.5.2-.6l4.4-2.7c.2-.1.5-.1.6.2.1.2.1.5-.2.6l-4.4 2.7c-.1-.1-.1 0-.2 0zm0 2.7c-.2 0-.3-.1-.4-.2-.1-.2-.1-.5.2-.6l4.4-2.7c.2-.1.5-.1.6.2.1.2.1.5-.2.6l-4.4 2.7h-.2z"/><path class="st12" d="M366.3 214.3h-4.8c-.3 0-.5-.2-.5-.5s.2-.5.5-.5h4.8c.3 0 .5.2.5.5s-.2.5-.5.5zm0 2.7h-4.8c-.3 0-.5-.2-.5-.5s.2-.5.5-.5h4.8c.3 0 .5.2.5.5s-.2.5-.5.5zm0 2.8h-4.8c-.3 0-.5-.2-.5-.5s.2-.5.5-.5h4.8c.3 0 .5.2.5.5s-.2.5-.5.5zm0 2.8h-4.8c-.3 0-.5-.2-.5-.5s.2-.5.5-.5h4.8c.3 0 .5.2.5.5 0 .2-.2.5-.5.5z"/><path class="st15" d="M367.8 212.5h-8.4v-1c0-.8.7-1.5 1.5-1.5h5.5c.8 0 1.5.7 1.5 1.5v1z"/><circle class="st10" cx="352.8" cy="204.3" r="1.1"/><circle class="st15" cx="354.4" cy="201" r=".9"/><circle class="st15" cx="358.3" cy="211.3" r=".7"/><circle class="st15" cx="369.3" cy="211.3" r=".7"/><g id="XMLID_940_"><path class="st1" d="M382.5 202h-1.1v-3.5h1.1c3.2 0 5.8-2.6 5.8-5.8v-11h3.5v11c.1 5.1-4.1 9.3-9.3 9.3z" id="XMLID_1018_"/><g id="XMLID_1016_"><path class="st1" d="M379.7 188.3h3.5v34.3h-3.5z" id="XMLID_1017_"/></g><path id="XMLID_1014_" class="st3" d="M381.5 189c10.2 0 18.5-8.3 18.5-18.5v-34.9c0-10.2-8.3-18.5-18.5-18.5s-18.5 8.3-18.5 18.5v34.9c-.1 10.2 8.2 18.5 18.5 18.5z"/><path id="XMLID_1013_" class="st2" d="M381.5 117c8.6 0 15.8 5.9 17.9 13.8-1.6-4.3-5.7-7.3-10.6-7.3-6.2 0-11.2 5-11.3 11.2V163c0 6.2-5 11.3-11.3 11.3-1.1 0-2.1-.2-3.1-.4-.2-1.1-.3-2.2-.3-3.4v-34.9c.1-10.3 8.4-18.6 18.7-18.6z"/></g><path class="st9" d="M345 81.6c2.1 2.6 5.9 2.9 8.4.8 2.6-2.1 2.9-5.9.8-8.4l-9.2 7.6z"/><path class="st5" d="M342.4 88.7c-.1-.2 0-.5.2-.6l3.4-1.8c.2-.1.5 0 .6.2.1.2 0 .5-.2.6l-3.4 1.8c-.2.2-.5.1-.6-.2zm-1.2-1.1c-.1-.2 0-.5.2-.6l3.4-1.8c.2-.1.5 0 .6.2.1.2 0 .5-.2.6l-3.4 1.8c-.2.1-.5 0-.6-.2z"/><path class="st7" d="M341.9 81.2c-.2 2.4.8 4.8 3 6.3 3.1 2.1 7.3 1.2 9.4-1.9.5-.8.9-1.6 1-2.5v-1.9h-13.4z"/><path class="st9" d="M346.3 83.6h-8.6c-1.3 0-2.4-1.1-2.4-2.4h11v2.4z"/><path class="st7" d="M351.2 81.6c-2.1 2.6-5.9 2.9-8.4.8-2.6-2.1-2.9-5.9-.8-8.4l9.2 7.6z"/><path class="st9" d="M343.1 75l-2.5 3.7c.1.7.3 1.4.6 2l3.1-4.6-1.2-1.1zm3.6 2.9l-1.3-1.1-3.4 5c.2.2.4.5.7.7.2.2.4.3.6.4l3.4-5zm10.1 3.3h-3.3v5.3s1.3-1.3 2.3-1.9c.9-.5 2.7-.6 2.7-.6.1-.3.2-.5.2-.9.1-1-.8-1.9-1.9-1.9z"/><path class="st5" d="M358.6 84h1.8s-.2-.7-.9-1.2c-.3-.3-.6-.4-.9-.5V84z"/><g id="XMLID_697_"><path class="st5" d="M223.5 206.7h-1c-2.1 0-3.9 1.7-3.9 3.9v8.5h8.7v-8.5c0-2.2-1.7-3.9-3.8-3.9z"/><g id="XMLID_700_"><circle id="XMLID_1001_" class="st5" cx="222.3" cy="200.7" r="7.3"/></g><g id="XMLID_701_"><g id="XMLID_702_"><path id="XMLID_703_" class="st10" d="M218.1 202.1c0 1.5 1.2 2.7 2.7 2.7 1.5 0 2.7-1.2 2.7-2.7h-5.4z"/></g></g><g id="XMLID_704_"><path id="XMLID_705_" class="st11" d="M229.5 200.1v.5c0 1.1-.3 2.1-.7 3.1-1.8-.1-3.4-1.6-3.5-3.5l-.1-1.1 3.9-.3c.2.5.3.9.4 1.3z"/></g><g id="XMLID_706_"><path id="XMLID_15_" class="st10" d="M211.1 197l5.5.6-.1 1.2-5.5-.6c-.3 0-.6-.3-.6-.7.1-.2.4-.5.7-.5z"/></g><g id="XMLID_113_"><path id="XMLID_708_" class="st10" d="M215.3 198.7c.9-3 3.7-5.3 7-5.3 3.8 0 7 3 7.2 6.8l-14.2-1.5z"/></g></g><g id="XMLID_709_"><g id="XMLID_112_"><path id="XMLID_711_" class="st1" d="M185 206.6l-.1 7.7h14.8l.3-8.8h-13.8z"/></g><g id="XMLID_712_"><path id="XMLID_111_" class="st1" d="M198.4 207.2c0-.1 0-.3.1-.4-.1-.1-.2-.3-.1-.5.2-.3.3-.6.5-.9.2-.5.5-.9.8-1.3-1.2-2.8-3.9-4.7-7.1-4.7-4.3 0-7.7 3.5-7.7 7.7 0 2.7 1.4 5 3.4 6.4.4-.8.9-1.4 1.7-1.9.3-.2.7.1.7.5.1 0 .3 0 .3.1.2.1.3.4.2.6-.1.1-.1.2-.2.3.2-.1.5-.3.7-.3h.3c.8-.6 1.7-1.2 2.8-1.5.4-.1.6.2.5.6.1 0 .1 0 .2.1.2-.2.5-.3.7-.5.2-.1.4-.1.5.1-.1-.1-.1-.3 0-.4l.3-.3c-.3-.1-.5-.5-.2-.7.1-.1.2-.2.4-.3-.2-.2-.2-.5 0-.7l.6-.6c-.4 0-.7-.5-.3-.8.4-.3.7-.5.9-.6z"/></g><g id="XMLID_717_"><circle id="XMLID_110_" class="st5" cx="193.4" cy="207.1" r="6.7"/></g><g id="XMLID_718_"><g id="XMLID_109_"><path id="XMLID_720_" class="st10" d="M197.7 208c0 1.4-1.1 2.5-2.5 2.5s-2.5-1.1-2.5-2.5h5z"/></g></g><g id="XMLID_721_"><path id="XMLID_108_" class="st1" d="M195.5 202.6l.5 2.7h4.9c-.8-3.4-3.9-5.9-7.5-5.9s-6.7 2.5-7.5 5.9h8.1l1.5-2.7z"/></g></g><path class="st9" d="M238.7 218.9c.9-.7 1.6-1.8 1.6-3 0-2-1.6-3.7-3.7-3.7h-59.1c-2 0-3.7 1.6-3.7 3.7 0 1.2.6 2.3 1.6 3-.9.7-1.6 1.8-1.6 3 0 2 1.6 3.7 3.7 3.7h59.1c2 0 3.7-1.6 3.7-3.7 0-1.2-.6-2.3-1.6-3z"/><path class="st16" d="M175.2 218.7c.1.1.2.2.3.2-.4.3-.7.6-1 1.1h65.3c-.3-.4-.6-.8-1-1.1.1-.1.2-.2.3-.2h-63.9z"/><circle class="st5" cx="204.1" cy="212.1" r="2.2"/><circle class="st5" cx="228.2" cy="212.1" r="2.2"/><circle class="st5" cx="185.2" cy="212.1" r="2.2"/><circle class="st4" cx="251.8" cy="221" r="4.6"/><path class="st5" d="M253.8 216.8c.2.5.3.9.3 1.4 0 2.6-2.1 4.6-4.6 4.6-.7 0-1.3-.2-1.9-.4.6 1.9 2.3 3.2 4.4 3.2 2.6 0 4.6-2.1 4.6-4.6-.1-1.9-1.2-3.5-2.8-4.2z"/></svg>